<svg xmlns="http://www.w3.org/2000/svg" xmlns:xlink="http://www.w3.org/1999/xlink" xmlns:lucid="lucid" width="1067.17" height="681"><g transform="translate(-627.1666666666666 -180.49999999999994)" lucid:page-tab-id="0_0"><path d="M1211.33 226a6 6 0 0 1 6-6h449.5a6 6 0 0 1 6 6v608a6 6 0 0 1-6 6h-449.5a6 6 0 0 1-6-6z" stroke="#5e5e5e" stroke-width="3" fill="#fff"/><path d="M648.67 208a6 6 0 0 1 6-6h308a6 6 0 0 1 6 6v228a6 6 0 0 1-6 6h-308a6 6 0 0 1-6-6z" stroke="#5e5e5e" stroke-width="3" fill-opacity="0"/><use xlink:href="#a" transform="matrix(1,0,0,1,656.6666666666666,209.99999999999994) translate(113.14197530864197 17.77777777777778)"/><path d="M648.67 266a6 6 0 0 1 6-6h308a6 6 0 0 1 6 6v78a6 6 0 0 1-6 6h-308a6 6 0 0 1-6-6z" stroke="#000" stroke-opacity="0" stroke-width="3" fill="#fff" fill-opacity="0"/><use xlink:href="#b" transform="matrix(1,0,0,1,653.6666666666666,265) translate(117.55555555555557 13.166666666666663)"/><use xlink:href="#c" transform="matrix(1,0,0,1,653.6666666666666,265) translate(5.444444444444443 29.166666666666657)"/><use xlink:href="#d" transform="matrix(1,0,0,1,653.6666666666666,265) translate(15.55555555555555 29.166666666666657)"/><use xlink:href="#e" transform="matrix(1,0,0,1,653.6666666666666,265) translate(62.81481481481479 29.166666666666657)"/><use xlink:href="#f" transform="matrix(1,0,0,1,653.6666666666666,265) translate(80.55555555555551 29.166666666666657)"/><use xlink:href="#g" transform="matrix(1,0,0,1,653.6666666666666,265) translate(87.96296296296292 29.166666666666657)"/><use xlink:href="#h" transform="matrix(1,0,0,1,653.6666666666666,265) translate(130.88888888888883 29.166666666666657)"/><use xlink:href="#i" transform="matrix(1,0,0,1,653.6666666666666,265) translate(213.70370370370358 29.166666666666657)"/><use xlink:href="#j" transform="matrix(1,0,0,1,653.6666666666666,265) translate(232.2222222222221 29.166666666666657)"/><use xlink:href="#c" transform="matrix(1,0,0,1,653.6666666666666,265) translate(5.444444444444443 45.16666666666665)"/><use xlink:href="#k" transform="matrix(1,0,0,1,653.6666666666666,265) translate(15.55555555555555 45.16666666666665)"/><use xlink:href="#l" transform="matrix(1,0,0,1,653.6666666666666,265) translate(54.74074074074072 45.16666666666665)"/><use xlink:href="#f" transform="matrix(1,0,0,1,653.6666666666666,265) translate(73.2222222222222 45.16666666666665)"/><use xlink:href="#m" transform="matrix(1,0,0,1,653.6666666666666,265) translate(80.6296296296296 45.16666666666665)"/><use xlink:href="#i" transform="matrix(1,0,0,1,653.6666666666666,265) translate(117.62962962962959 45.16666666666665)"/><use xlink:href="#j" transform="matrix(1,0,0,1,653.6666666666666,265) translate(136.1481481481481 45.16666666666665)"/><use xlink:href="#c" transform="matrix(1,0,0,1,653.6666666666666,265) translate(5.444444444444443 61.16666666666664)"/><use xlink:href="#n" transform="matrix(1,0,0,1,653.6666666666666,265) translate(15.55555555555555 61.16666666666664)"/><use xlink:href="#e" transform="matrix(1,0,0,1,653.6666666666666,265) translate(90.1481481481481 61.16666666666664)"/><use xlink:href="#f" transform="matrix(1,0,0,1,653.6666666666666,265) translate(107.88888888888883 61.16666666666664)"/><use xlink:href="#o" transform="matrix(1,0,0,1,653.6666666666666,265) translate(115.29629629629623 61.16666666666664)"/><use xlink:href="#i" transform="matrix(1,0,0,1,653.6666666666666,265) translate(184.8888888888888 61.16666666666664)"/><use xlink:href="#j" transform="matrix(1,0,0,1,653.6666666666666,265) translate(203.4074074074073 61.16666666666664)"/><use xlink:href="#c" transform="matrix(1,0,0,1,653.6666666666666,265) translate(5.444444444444443 77.16666666666663)"/><use xlink:href="#p" transform="matrix(1,0,0,1,653.6666666666666,265) translate(15.55555555555555 77.16666666666663)"/><use xlink:href="#q" transform="matrix(1,0,0,1,653.6666666666666,265) translate(51.07407407407405 77.16666666666663)"/><use xlink:href="#f" transform="matrix(1,0,0,1,653.6666666666666,265) translate(79.9259259259259 77.16666666666663)"/><use xlink:href="#r" transform="matrix(1,0,0,1,653.6666666666666,265) translate(87.3333333333333 77.16666666666663)"/><use xlink:href="#i" transform="matrix(1,0,0,1,653.6666666666666,265) translate(119.8518518518518 77.16666666666663)"/><use xlink:href="#s" transform="matrix(1,0,0,1,653.6666666666666,265) translate(138.37037037037032 77.16666666666663)"/><g><path d="M1442.62 260c110.44 0 199.96 35.82 199.96 80s-89.52 80-199.96 80c-110.43 0-199.95-35.82-199.95-80s89.52-80 199.95-80z" stroke="#5e5e5e" stroke-width="3" fill-opacity="0"/></g><path d="M1271.33 286a6 6 0 0 1 6-6h339.34a6 6 0 0 1 6 6v95.58a6 6 0 0 1-6 6h-339.34a6 6 0 0 1-6-6z" fill="none"/><g><use xlink:href="#t" transform="matrix(1,0,0,1,1271.3335027192927,280) translate(4.370370370370438 32.66666666666667)"/><use xlink:href="#u" transform="matrix(1,0,0,1,1271.3335027192927,280) translate(26.59259259259265 32.66666666666667)"/><use xlink:href="#v" transform="matrix(1,0,0,1,1271.3335027192927,280) translate(95.33333333333336 32.66666666666667)"/><use xlink:href="#w" transform="matrix(1,0,0,1,1271.3335027192927,280) translate(116.7777777777778 32.66666666666667)"/><use xlink:href="#x" transform="matrix(1,0,0,1,1271.3335027192927,280) translate(157.4814814814815 32.66666666666667)"/><use xlink:href="#y" transform="matrix(1,0,0,1,1271.3335027192927,280) translate(178.92592592592592 32.66666666666667)"/><use xlink:href="#v" transform="matrix(1,0,0,1,1271.3335027192927,280) translate(252.22222222222217 32.66666666666667)"/><use xlink:href="#z" transform="matrix(1,0,0,1,1271.3335027192927,280) translate(273.66666666666663 32.66666666666667)"/><use xlink:href="#A" transform="matrix(1,0,0,1,1271.3335027192927,280) translate(314.3703703703703 32.66666666666667)"/><use xlink:href="#B" transform="matrix(1,0,0,1,1271.3335027192927,280) translate(4.333333333333332 48.666666666666664)"/><use xlink:href="#C" transform="matrix(1,0,0,1,1271.3335027192927,280) translate(13.333333333333329 48.666666666666664)"/><use xlink:href="#D" transform="matrix(1,0,0,1,1271.3335027192927,280) translate(79.14814814814811 48.666666666666664)"/><use xlink:href="#E" transform="matrix(1,0,0,1,1271.3335027192927,280) translate(124.29629629629623 48.666666666666664)"/><use xlink:href="#F" transform="matrix(1,0,0,1,1271.3335027192927,280) translate(142.81481481481475 48.666666666666664)"/><use xlink:href="#G" transform="matrix(1,0,0,1,1271.3335027192927,280) translate(195.3703703703703 48.666666666666664)"/><use xlink:href="#H" transform="matrix(1,0,0,1,1271.3335027192927,280) translate(229.44444444444434 48.666666666666664)"/><use xlink:href="#I" transform="matrix(1,0,0,1,1271.3335027192927,280) translate(269.37037037037027 48.666666666666664)"/><use xlink:href="#J" transform="matrix(1,0,0,1,1271.3335027192927,280) translate(291.55555555555543 48.666666666666664)"/><use xlink:href="#K" transform="matrix(1,0,0,1,1271.3335027192927,280) translate(13.333333333333329 64.66666666666666)"/><use xlink:href="#L" transform="matrix(1,0,0,1,1271.3335027192927,280) translate(42.2222222222222 64.66666666666666)"/><use xlink:href="#M" transform="matrix(1,0,0,1,1271.3335027192927,280) translate(87.37037037037032 64.66666666666666)"/><use xlink:href="#N" transform="matrix(1,0,0,1,1271.3335027192927,280) translate(106.59259259259254 64.66666666666666)"/><use xlink:href="#O" transform="matrix(1,0,0,1,1271.3335027192927,280) translate(131.77777777777771 64.66666666666666)"/><use xlink:href="#P" transform="matrix(1,0,0,1,1271.3335027192927,280) translate(201.37037037037027 64.66666666666666)"/><use xlink:href="#Q" transform="matrix(1,0,0,1,1271.3335027192927,280) translate(212.48148148148138 64.66666666666666)"/><use xlink:href="#R" transform="matrix(1,0,0,1,1271.3335027192927,280) translate(249.48148148148135 64.66666666666666)"/><use xlink:href="#B" transform="matrix(1,0,0,1,1271.3335027192927,280) translate(4.333333333333332 80.66666666666666)"/><use xlink:href="#S" transform="matrix(1,0,0,1,1271.3335027192927,280) translate(13.333333333333329 80.66666666666666)"/><use xlink:href="#T" transform="matrix(1,0,0,1,1271.3335027192927,280) translate(27.407407407407398 80.66666666666666)"/><use xlink:href="#E" transform="matrix(1,0,0,1,1271.3335027192927,280) translate(70.3333333333333 80.66666666666666)"/><use xlink:href="#U" transform="matrix(1,0,0,1,1271.3335027192927,280) translate(88.8518518518518 80.66666666666666)"/><use xlink:href="#V" transform="matrix(1,0,0,1,1271.3335027192927,280) translate(137.70370370370364 80.66666666666666)"/><use xlink:href="#W" transform="matrix(1,0,0,1,1271.3335027192927,280) translate(182.11111111111103 80.66666666666666)"/><use xlink:href="#X" transform="matrix(1,0,0,1,1271.3335027192927,280) translate(204.2962962962962 80.66666666666666)"/><use xlink:href="#Y" transform="matrix(1,0,0,1,1271.3335027192927,280) translate(249.44444444444431 80.66666666666666)"/></g><path d="M969.67 277.94h132.94a6 6 0 0 1 6 6v28a6 6 0 0 0 6 6h115.45" stroke="#5e5e5e" stroke-width="2" fill="none"/><path d="M969.7 278.94h-1.03v-2h1.02z" stroke="#5e5e5e" stroke-width=".05" fill="#5e5e5e"/><path d="M1245.3 317.94l-14.25 4.63v-9.27z" stroke="#5e5e5e" stroke-width="2" fill="#5e5e5e"/><g><path d="M1451.3 440c110.43 0 199.95 40.3 199.95 90s-89.52 90-199.96 90c-110.44 0-199.97-40.3-199.97-90s89.53-90 199.96-90z" stroke="#5e5e5e" stroke-width="3" fill-opacity="0"/></g><path d="M1295.54 466a6 6 0 0 1 6-6h339.33a6 6 0 0 1 6 6v95.58a6 6 0 0 1-6 6h-339.33a6 6 0 0 1-6-6z" fill="none"/><g><use xlink:href="#t" transform="matrix(1,0,0,1,1295.5405231604177,460) translate(96.48148148148152 10.666666666666664)"/><use xlink:href="#Z" transform="matrix(1,0,0,1,1295.5405231604177,460) translate(118.70370370370374 10.666666666666664)"/><use xlink:href="#aa" transform="matrix(1,0,0,1,1295.5405231604177,460) translate(233.37037037037032 10.666666666666664)"/><use xlink:href="#B" transform="matrix(1,0,0,1,1295.5405231604177,460) translate(4.333333333333332 26.66666666666666)"/><use xlink:href="#ab" transform="matrix(1,0,0,1,1295.5405231604177,460) translate(13.333333333333329 26.66666666666666)"/><use xlink:href="#I" transform="matrix(1,0,0,1,1295.5405231604177,460) translate(54.074074074074055 26.66666666666666)"/><use xlink:href="#U" transform="matrix(1,0,0,1,1295.5405231604177,460) translate(76.25925925925924 26.66666666666666)"/><use xlink:href="#ac" transform="matrix(1,0,0,1,1295.5405231604177,460) translate(125.11111111111107 26.66666666666666)"/><use xlink:href="#E" transform="matrix(1,0,0,1,1295.5405231604177,460) translate(172.4814814814814 26.66666666666666)"/><use xlink:href="#ad" transform="matrix(1,0,0,1,1295.5405231604177,460) translate(190.99999999999991 26.66666666666666)"/><use xlink:href="#ae" transform="matrix(1,0,0,1,1295.5405231604177,460) translate(216.18518518518508 26.66666666666666)"/><use xlink:href="#af" transform="matrix(1,0,0,1,1295.5405231604177,460) translate(4.333333333333332 42.66666666666666)"/><use xlink:href="#ag" transform="matrix(1,0,0,1,1295.5405231604177,460) translate(13.333333333333329 42.66666666666666)"/><use xlink:href="#ah" transform="matrix(1,0,0,1,1295.5405231604177,460) translate(17.64814814814814 58.66666666666665)"/><use xlink:href="#ai" transform="matrix(1,0,0,1,1295.5405231604177,460) translate(26.666666666666657 58.66666666666665)"/><use xlink:href="#aj" transform="matrix(1,0,0,1,1295.5405231604177,460) translate(73.29629629629626 58.66666666666665)"/><use xlink:href="#ak" transform="matrix(1,0,0,1,1295.5405231604177,460) translate(91.037037037037 58.66666666666665)"/><use xlink:href="#al" transform="matrix(1,0,0,1,1295.5405231604177,460) translate(99.1481481481481 58.66666666666665)"/><use xlink:href="#E" transform="matrix(1,0,0,1,1295.5405231604177,460) translate(181.96296296296288 58.66666666666665)"/><use xlink:href="#U" transform="matrix(1,0,0,1,1295.5405231604177,460) translate(200.48148148148138 58.66666666666665)"/><use xlink:href="#am" transform="matrix(1,0,0,1,1295.5405231604177,460) translate(249.3333333333332 58.66666666666665)"/><use xlink:href="#an" transform="matrix(1,0,0,1,1295.5405231604177,460) translate(283.3703703703702 58.66666666666665)"/><use xlink:href="#ao" transform="matrix(1,0,0,1,1295.5405231604177,460) translate(26.666666666666657 74.66666666666666)"/><use xlink:href="#I" transform="matrix(1,0,0,1,1295.5405231604177,460) translate(68.85185185185182 74.66666666666666)"/><use xlink:href="#T" transform="matrix(1,0,0,1,1295.5405231604177,460) translate(91.037037037037 74.66666666666666)"/><use xlink:href="#ap" transform="matrix(1,0,0,1,1295.5405231604177,460) translate(133.9629629629629 74.66666666666666)"/><use xlink:href="#af" transform="matrix(1,0,0,1,1295.5405231604177,460) translate(4.333333333333332 90.66666666666666)"/><use xlink:href="#aq" transform="matrix(1,0,0,1,1295.5405231604177,460) translate(13.333333333333329 90.66666666666666)"/><use xlink:href="#ah" transform="matrix(1,0,0,1,1295.5405231604177,460) translate(17.64814814814814 106.66666666666666)"/><use xlink:href="#S" transform="matrix(1,0,0,1,1295.5405231604177,460) translate(26.666666666666657 106.66666666666666)"/><use xlink:href="#U" transform="matrix(1,0,0,1,1295.5405231604177,460) translate(40.740740740740726 106.66666666666666)"/><use xlink:href="#ar" transform="matrix(1,0,0,1,1295.5405231604177,460) translate(89.59259259259255 106.66666666666666)"/><use xlink:href="#as" transform="matrix(1,0,0,1,1295.5405231604177,460) translate(118.4444444444444 106.66666666666666)"/><use xlink:href="#T" transform="matrix(1,0,0,1,1295.5405231604177,460) translate(129.55555555555551 106.66666666666666)"/><use xlink:href="#at" transform="matrix(1,0,0,1,1295.5405231604177,460) translate(172.4814814814814 106.66666666666666)"/><use xlink:href="#au" transform="matrix(1,0,0,1,1295.5405231604177,460) translate(226.48148148148138 106.66666666666666)"/><use xlink:href="#av" transform="matrix(1,0,0,1,1295.5405231604177,460) translate(244.9999999999999 106.66666666666666)"/><use xlink:href="#aw" transform="matrix(1,0,0,1,1295.5405231604177,460) translate(302.6666666666665 106.66666666666666)"/><use xlink:href="#ax" transform="matrix(1,0,0,1,1295.5405231604177,460) translate(26.666666666666657 122.66666666666666)"/><use xlink:href="#as" transform="matrix(1,0,0,1,1295.5405231604177,460) translate(58.51851851851849 122.66666666666666)"/><use xlink:href="#T" transform="matrix(1,0,0,1,1295.5405231604177,460) translate(69.62962962962959 122.66666666666666)"/><use xlink:href="#ay" transform="matrix(1,0,0,1,1295.5405231604177,460) translate(112.55555555555549 122.66666666666666)"/><use xlink:href="#az" transform="matrix(1,0,0,1,1295.5405231604177,460) translate(138.4814814814814 122.66666666666666)"/></g><g><path d="M1451.3 640c110.43 0 199.95 40.3 199.95 90s-89.52 90-199.96 90c-110.44 0-199.97-40.3-199.97-90s89.53-90 199.96-90z" stroke="#5e5e5e" stroke-width="3" fill-opacity="0"/></g><path d="M1275.63 682.2a6 6 0 0 1 6-6h339.33a6 6 0 0 1 6 6v95.6a6 6 0 0 1-6 6h-339.34a6 6 0 0 1-6-6z" fill="none"/><g><use xlink:href="#t" transform="matrix(1,0,0,1,1275.6246752932368,676.2108205408663) translate(38.000000000000085 16.66666666666667)"/><use xlink:href="#aA" transform="matrix(1,0,0,1,1275.6246752932368,676.2108205408663) translate(60.2222222222223 16.66666666666667)"/><use xlink:href="#v" transform="matrix(1,0,0,1,1275.6246752932368,676.2108205408663) translate(200.81481481481478 16.66666666666667)"/><use xlink:href="#y" transform="matrix(1,0,0,1,1275.6246752932368,676.2108205408663) translate(222.2592592592592 16.66666666666667)"/><use xlink:href="#aB" transform="matrix(1,0,0,1,1275.6246752932368,676.2108205408663) translate(295.55555555555543 16.66666666666667)"/><use xlink:href="#B" transform="matrix(1,0,0,1,1275.6246752932368,676.2108205408663) translate(4.333333333333332 32.66666666666667)"/><use xlink:href="#aC" transform="matrix(1,0,0,1,1275.6246752932368,676.2108205408663) translate(13.333333333333329 32.66666666666667)"/><use xlink:href="#aD" transform="matrix(1,0,0,1,1275.6246752932368,676.2108205408663) translate(61.44444444444442 32.66666666666667)"/><use xlink:href="#aE" transform="matrix(1,0,0,1,1275.6246752932368,676.2108205408663) translate(136.92592592592587 32.66666666666667)"/><use xlink:href="#aF" transform="matrix(1,0,0,1,1275.6246752932368,676.2108205408663) translate(159.8518518518518 32.66666666666667)"/><use xlink:href="#aG" transform="matrix(1,0,0,1,1275.6246752932368,676.2108205408663) translate(210.11111111111103 32.66666666666667)"/><use xlink:href="#O" transform="matrix(1,0,0,1,1275.6246752932368,676.2108205408663) translate(221.22222222222214 32.66666666666667)"/><use xlink:href="#aH" transform="matrix(1,0,0,1,1275.6246752932368,676.2108205408663) translate(290.81481481481467 32.66666666666667)"/><use xlink:href="#U" transform="matrix(1,0,0,1,1275.6246752932368,676.2108205408663) translate(13.333333333333329 48.666666666666664)"/><use xlink:href="#aI" transform="matrix(1,0,0,1,1275.6246752932368,676.2108205408663) translate(62.18518518518516 48.666666666666664)"/><use xlink:href="#af" transform="matrix(1,0,0,1,1275.6246752932368,676.2108205408663) translate(4.333333333333332 64.66666666666666)"/><use xlink:href="#aJ" transform="matrix(1,0,0,1,1275.6246752932368,676.2108205408663) translate(13.333333333333329 64.66666666666666)"/><use xlink:href="#ah" transform="matrix(1,0,0,1,1275.6246752932368,676.2108205408663) translate(17.64814814814814 80.66666666666666)"/><use xlink:href="#aK" transform="matrix(1,0,0,1,1275.6246752932368,676.2108205408663) translate(26.666666666666657 80.66666666666666)"/><use xlink:href="#aj" transform="matrix(1,0,0,1,1275.6246752932368,676.2108205408663) translate(99.9629629629629 80.66666666666666)"/><use xlink:href="#ak" transform="matrix(1,0,0,1,1275.6246752932368,676.2108205408663) translate(117.70370370370364 80.66666666666666)"/><use xlink:href="#O" transform="matrix(1,0,0,1,1275.6246752932368,676.2108205408663) translate(125.81481481481475 80.66666666666666)"/><use xlink:href="#E" transform="matrix(1,0,0,1,1275.6246752932368,676.2108205408663) translate(195.4074074074073 80.66666666666666)"/><use xlink:href="#U" transform="matrix(1,0,0,1,1275.6246752932368,676.2108205408663) translate(213.9259259259258 80.66666666666666)"/><use xlink:href="#aL" transform="matrix(1,0,0,1,1275.6246752932368,676.2108205408663) translate(262.77777777777766 80.66666666666666)"/><use xlink:href="#aM" transform="matrix(1,0,0,1,1275.6246752932368,676.2108205408663) translate(288.7037037037036 80.66666666666666)"/><use xlink:href="#aN" transform="matrix(1,0,0,1,1275.6246752932368,676.2108205408663) translate(26.666666666666657 96.66666666666666)"/></g><path d="M971.17 360H1104a6 6 0 0 1 6 6v158a6 6 0 0 0 6 6h115.33" stroke="#5e5e5e" stroke-width="2" fill="none"/><path d="M971.2 361h-1.03v-2h1.02z" stroke="#5e5e5e" stroke-width=".05" fill="#5e5e5e"/><path d="M1246.6 530l-14.27 4.63v-9.26z" stroke="#5e5e5e" stroke-width="2" fill="#5e5e5e"/><path d="M922 444.5V724a6 6 0 0 0 6 6h303.33" stroke="#5e5e5e" stroke-width="2" fill="none"/><path d="M923 444.53h-2v-1.03h2z" stroke="#5e5e5e" stroke-width=".05" fill="#5e5e5e"/><path d="M1246.6 730l-14.27 4.63v-9.26z" stroke="#5e5e5e" stroke-width="2" fill="#5e5e5e"/><defs><path fill="#333" d="M30-248c87 1 191-15 191 75 0 78-77 80-158 76V0H30v-248zm33 125c57 0 124 11 124-50 0-59-68-47-124-48v98" id="aO"/><path fill="#333" d="M114-163C36-179 61-72 57 0H25l-1-190h30c1 12-1 29 2 39 6-27 23-49 58-41v29" id="aP"/><path fill="#333" d="M100-194c62-1 85 37 85 99 1 63-27 99-86 99S16-35 15-95c0-66 28-99 85-99zM99-20c44 1 53-31 53-75 0-43-8-75-51-75s-53 32-53 75 10 74 51 75" id="aQ"/><path fill="#333" d="M85-194c31 0 48 13 60 33l-1-100h32l1 261h-30c-2-10 0-23-3-31C134-8 116 4 85 4 32 4 16-35 15-94c0-66 23-100 70-100zm9 24c-40 0-46 34-46 75 0 40 6 74 45 74 42 0 51-32 51-76 0-42-9-74-50-73" id="aR"/><path fill="#333" d="M84 4C-5 8 30-112 23-190h32v120c0 31 7 50 39 49 72-2 45-101 50-169h31l1 190h-30c-1-10 1-25-2-33-11 22-28 36-60 37" id="aS"/><path fill="#333" d="M59-47c-2 24 18 29 38 22v24C64 9 27 4 27-40v-127H5v-23h24l9-43h21v43h35v23H59v120" id="aT"/><g id="a"><use transform="matrix(0.06172839506172839,0,0,0.06172839506172839,0,0)" xlink:href="#aO"/><use transform="matrix(0.06172839506172839,0,0,0.06172839506172839,14.814814814814813,0)" xlink:href="#aP"/><use transform="matrix(0.06172839506172839,0,0,0.06172839506172839,22.160493827160494,0)" xlink:href="#aQ"/><use transform="matrix(0.06172839506172839,0,0,0.06172839506172839,34.50617283950617,0)" xlink:href="#aR"/><use transform="matrix(0.06172839506172839,0,0,0.06172839506172839,46.85185185185185,0)" xlink:href="#aS"/><use transform="matrix(0.06172839506172839,0,0,0.06172839506172839,59.197530864197525,0)" xlink:href="#aT"/><use transform="matrix(0.06172839506172839,0,0,0.06172839506172839,65.37037037037037,0)" xlink:href="#aQ"/></g><path fill="#333" d="M205 0l-28-72H64L36 0H1l101-248h38L239 0h-34zm-38-99l-47-123c-12 45-31 82-46 123h93" id="aU"/><path fill="#333" d="M127-220V0H93v-220H8v-28h204v28h-85" id="aV"/><path fill="#333" d="M233-177c-1 41-23 64-60 70L243 0h-38l-65-103H63V0H30v-248c88 3 205-21 203 71zM63-129c60-2 137 13 137-47 0-61-80-42-137-45v92" id="aW"/><path fill="#333" d="M33 0v-248h34V0H33" id="aX"/><path fill="#333" d="M160-131c35 5 61 23 61 61C221 17 115-2 30 0v-248c76 3 177-17 177 60 0 33-19 50-47 57zm-97-11c50-1 110 9 110-42 0-47-63-36-110-37v79zm0 115c55-2 124 14 124-45 0-56-70-42-124-44v89" id="aY"/><path fill="#333" d="M232-93c-1 65-40 97-104 97C67 4 28-28 28-90v-158h33c8 89-33 224 67 224 102 0 64-133 71-224h33v155" id="aZ"/><path fill="#333" d="M140-251c81 0 123 46 123 126C263-46 219 4 140 4 59 4 17-45 17-125s42-126 123-126zm0 227c63 0 89-41 89-101s-29-99-89-99c-61 0-89 39-89 99S79-25 140-24" id="ba"/><path fill="#333" d="M185-189c-5-48-123-54-124 2 14 75 158 14 163 119 3 78-121 87-175 55-17-10-28-26-33-46l33-7c5 56 141 63 141-1 0-78-155-14-162-118-5-82 145-84 179-34 5 7 8 16 11 25" id="bb"/><g id="b"><use transform="matrix(0.03703703703703702,0,0,0.03703703703703702,0,0)" xlink:href="#aU"/><use transform="matrix(0.03703703703703702,0,0,0.03703703703703702,7.888888888888886,0)" xlink:href="#aV"/><use transform="matrix(0.03703703703703702,0,0,0.03703703703703702,15.999999999999993,0)" xlink:href="#aW"/><use transform="matrix(0.03703703703703702,0,0,0.03703703703703702,25.59259259259258,0)" xlink:href="#aX"/><use transform="matrix(0.03703703703703702,0,0,0.03703703703703702,29.296296296296283,0)" xlink:href="#aY"/><use transform="matrix(0.03703703703703702,0,0,0.03703703703703702,38.18518518518517,0)" xlink:href="#aZ"/><use transform="matrix(0.03703703703703702,0,0,0.03703703703703702,47.77777777777776,0)" xlink:href="#aV"/><use transform="matrix(0.03703703703703702,0,0,0.03703703703703702,55.629629629629605,0)" xlink:href="#ba"/><use transform="matrix(0.03703703703703702,0,0,0.03703703703703702,65.99999999999997,0)" xlink:href="#bb"/></g><path fill="#333" d="M63-170c30 0 51 21 51 51 0 31-20 52-51 52s-52-21-52-52 21-51 52-51" id="bc"/><use transform="matrix(0.03703703703703702,0,0,0.03703703703703702,0,0)" xlink:href="#bc" id="c"/><path fill="#333" d="M190-63c-7 42-38 67-86 67-59 0-84-38-90-98-12-110 154-137 174-36l-49 2c-2-19-15-32-35-32-30 0-35 28-38 64-6 74 65 87 74 30" id="bd"/><path fill="#333" d="M110-194c64 0 96 36 96 99 0 64-35 99-97 99-61 0-95-36-95-99 0-62 34-99 96-99zm-1 164c35 0 45-28 45-65 0-40-10-65-43-65-34 0-45 26-45 65 0 36 10 65 43 65" id="be"/><path fill="#333" d="M88-194c31-1 46 15 58 34l-1-101h50l1 261h-48c-2-10 0-23-3-31C134-8 116 4 84 4 32 4 16-41 15-95c0-56 19-97 73-99zm17 164c33 0 40-30 41-66 1-37-9-64-41-64s-38 30-39 65c0 43 13 65 39 65" id="bf"/><path fill="#333" d="M25-224v-37h50v37H25zM25 0v-190h50V0H25" id="bg"/><path fill="#333" d="M195-6C206 82 75 100 31 46c-4-6-6-13-8-21l49-6c3 16 16 24 34 25 40 0 42-37 40-79-11 22-30 35-61 35-53 0-70-43-70-97 0-56 18-96 73-97 30 0 46 14 59 34l2-30h47zm-90-29c32 0 41-27 41-63 0-35-9-62-40-62-32 0-39 29-40 63 0 36 9 62 39 62" id="bh"/><g id="d"><use transform="matrix(0.03703703703703702,0,0,0.03703703703703702,0,0)" xlink:href="#bd"/><use transform="matrix(0.03703703703703702,0,0,0.03703703703703702,7.407407407407404,0)" xlink:href="#be"/><use transform="matrix(0.03703703703703702,0,0,0.03703703703703702,15.518518518518512,0)" xlink:href="#bf"/><use transform="matrix(0.03703703703703702,0,0,0.03703703703703702,23.62962962962962,0)" xlink:href="#bg"/><use transform="matrix(0.03703703703703702,0,0,0.03703703703703702,27.33333333333332,0)" xlink:href="#bh"/><use transform="matrix(0.03703703703703702,0,0,0.03703703703703702,35.44444444444443,0)" xlink:href="#be"/></g><path fill="#fcce14" d="M24-231v-30h32v30H24zM24 0v-190h32V0H24" id="bi"/><path fill="#fcce14" d="M117-194c89-4 53 116 60 194h-32v-121c0-31-8-49-39-48C34-167 62-67 57 0H25l-1-190h30c1 10-1 24 2 32 11-22 29-35 61-36" id="bj"/><path fill="#fcce14" d="M59-47c-2 24 18 29 38 22v24C64 9 27 4 27-40v-127H5v-23h24l9-43h21v43h35v23H59v120" id="bk"/><g id="e"><use transform="matrix(0.03703703703703702,0,0,0.03703703703703702,0,0)" xlink:href="#bi"/><use transform="matrix(0.03703703703703702,0,0,0.03703703703703702,2.9259259259259247,0)" xlink:href="#bj"/><use transform="matrix(0.03703703703703702,0,0,0.03703703703703702,10.333333333333329,0)" xlink:href="#bk"/></g><path fill="#333" d="M0 4l72-265h28L28 4H0" id="bl"/><use transform="matrix(0.03703703703703702,0,0,0.03703703703703702,0,0)" xlink:href="#bl" id="f"/><path fill="#333" d="M96-169c-40 0-48 33-48 73s9 75 48 75c24 0 41-14 43-38l32 2c-6 37-31 61-74 61-59 0-76-41-82-99-10-93 101-131 147-64 4 7 5 14 7 22l-32 3c-4-21-16-35-41-35" id="bm"/><path fill="#333" d="M100-194c62-1 85 37 85 99 1 63-27 99-86 99S16-35 15-95c0-66 28-99 85-99zM99-20c44 1 53-31 53-75 0-43-8-75-51-75s-53 32-53 75 10 74 51 75zM76-211c8-23 27-35 38-54h36v5l-58 49H76" id="bn"/><path fill="#333" d="M24-231v-30h32v30H24zM24 0v-190h32V0H24" id="bo"/><path fill="#333" d="M177-190C167-65 218 103 67 71c-23-6-38-20-44-43l32-5c15 47 100 32 89-28v-30C133-14 115 1 83 1 29 1 15-40 15-95c0-56 16-97 71-98 29-1 48 16 59 35 1-10 0-23 2-32h30zM94-22c36 0 50-32 50-73 0-42-14-75-50-75-39 0-46 34-46 75s6 73 46 73" id="bp"/><g id="g"><use transform="matrix(0.03703703703703702,0,0,0.03703703703703702,0,0)" xlink:href="#bm"/><use transform="matrix(0.03703703703703702,0,0,0.03703703703703702,6.666666666666663,0)" xlink:href="#bn"/><use transform="matrix(0.03703703703703702,0,0,0.03703703703703702,14.074074074074067,0)" xlink:href="#aR"/><use transform="matrix(0.03703703703703702,0,0,0.03703703703703702,21.481481481481474,0)" xlink:href="#bo"/><use transform="matrix(0.03703703703703702,0,0,0.03703703703703702,24.407407407407394,0)" xlink:href="#bp"/><use transform="matrix(0.03703703703703702,0,0,0.03703703703703702,31.814814814814795,0)" xlink:href="#aQ"/></g><path fill="#333" d="M117-194c89-4 53 116 60 194h-32v-121c0-31-8-49-39-48C34-167 62-67 57 0H25l-1-190h30c1 10-1 24 2 32 11-22 29-35 61-36" id="bq"/><path fill="#333" d="M100-194c63 0 86 42 84 106H49c0 40 14 67 53 68 26 1 43-12 49-29l28 8c-11 28-37 45-77 45C44 4 14-33 15-96c1-61 26-98 85-98zm52 81c6-60-76-77-97-28-3 7-6 17-6 28h103" id="br"/><path fill="#333" d="M101-234c-31-9-42 10-38 44h38v23H63V0H32v-167H5v-23h27c-7-52 17-82 69-68v24" id="bs"/><path fill="#333" d="M141-36C126-15 110 5 73 4 37 3 15-17 15-53c-1-64 63-63 125-63 3-35-9-54-41-54-24 1-41 7-42 31l-33-3c5-37 33-52 76-52 45 0 72 20 72 64v82c-1 20 7 32 28 27v20c-31 9-61-2-59-35zM48-53c0 20 12 33 32 33 41-3 63-29 60-74-43 2-92-5-92 41" id="bt"/><g id="h"><use transform="matrix(0.03703703703703702,0,0,0.03703703703703702,0,0)" xlink:href="#bo"/><use transform="matrix(0.03703703703703702,0,0,0.03703703703703702,2.9259259259259247,0)" xlink:href="#bq"/><use transform="matrix(0.03703703703703702,0,0,0.03703703703703702,10.333333333333329,0)" xlink:href="#aR"/><use transform="matrix(0.03703703703703702,0,0,0.03703703703703702,17.740740740740733,0)" xlink:href="#br"/><use transform="matrix(0.03703703703703702,0,0,0.03703703703703702,25.148148148148138,0)" xlink:href="#bq"/><use transform="matrix(0.03703703703703702,0,0,0.03703703703703702,32.55555555555554,0)" xlink:href="#aT"/><use transform="matrix(0.03703703703703702,0,0,0.03703703703703702,36.259259259259245,0)" xlink:href="#bo"/><use transform="matrix(0.03703703703703702,0,0,0.03703703703703702,39.18518518518517,0)" xlink:href="#bs"/><use transform="matrix(0.03703703703703702,0,0,0.03703703703703702,42.88888888888887,0)" xlink:href="#bo"/><use transform="matrix(0.03703703703703702,0,0,0.03703703703703702,45.814814814814795,0)" xlink:href="#bm"/><use transform="matrix(0.03703703703703702,0,0,0.03703703703703702,52.48148148148146,0)" xlink:href="#bt"/><use transform="matrix(0.03703703703703702,0,0,0.03703703703703702,59.888888888888864,0)" xlink:href="#aR"/><use transform="matrix(0.03703703703703702,0,0,0.03703703703703702,67.29629629629626,0)" xlink:href="#aQ"/><use transform="matrix(0.03703703703703702,0,0,0.03703703703703702,74.70370370370367,0)" xlink:href="#aP"/></g><g id="i"><use transform="matrix(0.03703703703703702,0,0,0.03703703703703702,0,0)" xlink:href="#aR"/><use transform="matrix(0.03703703703703702,0,0,0.03703703703703702,7.407407407407404,0)" xlink:href="#aQ"/></g><path fill="#333" d="M115-194c55 1 70 41 70 98S169 2 115 4C84 4 66-9 55-30l1 105H24l-1-265h31l2 30c10-21 28-34 59-34zm-8 174c40 0 45-34 45-75s-6-73-45-74c-42 0-51 32-51 76 0 43 10 73 51 73" id="bu"/><g id="j"><use transform="matrix(0.03703703703703702,0,0,0.03703703703703702,0,0)" xlink:href="#bu"/><use transform="matrix(0.03703703703703702,0,0,0.03703703703703702,7.407407407407404,0)" xlink:href="#aP"/><use transform="matrix(0.03703703703703702,0,0,0.03703703703703702,11.81481481481481,0)" xlink:href="#aQ"/><use transform="matrix(0.03703703703703702,0,0,0.03703703703703702,19.222222222222214,0)" xlink:href="#aR"/><use transform="matrix(0.03703703703703702,0,0,0.03703703703703702,26.62962962962962,0)" xlink:href="#aS"/><use transform="matrix(0.03703703703703702,0,0,0.03703703703703702,34.037037037037024,0)" xlink:href="#aT"/><use transform="matrix(0.03703703703703702,0,0,0.03703703703703702,37.740740740740726,0)" xlink:href="#aQ"/></g><path fill="#333" d="M135-194c87-1 58 113 63 194h-50c-7-57 23-157-34-157-59 0-34 97-39 157H25l-1-190h47c2 12-1 28 3 38 12-26 28-41 61-42" id="bv"/><path fill="#333" d="M220-157c-53 9-28 100-34 157h-49v-107c1-27-5-49-29-50C55-147 81-57 75 0H25l-1-190h47c2 12-1 28 3 38 10-53 101-56 108 0 13-22 24-43 59-42 82 1 51 116 57 194h-49v-107c-1-25-5-48-29-50" id="bw"/><path fill="#333" d="M185-48c-13 30-37 53-82 52C43 2 14-33 14-96s30-98 90-98c62 0 83 45 84 108H66c0 31 8 55 39 56 18 0 30-7 34-22zm-45-69c5-46-57-63-70-21-2 6-4 13-4 21h74" id="bx"/><g id="k"><use transform="matrix(0.03703703703703702,0,0,0.03703703703703702,0,0)" xlink:href="#bv"/><use transform="matrix(0.03703703703703702,0,0,0.03703703703703702,8.111111111111107,0)" xlink:href="#be"/><use transform="matrix(0.03703703703703702,0,0,0.03703703703703702,16.222222222222214,0)" xlink:href="#bw"/><use transform="matrix(0.03703703703703702,0,0,0.03703703703703702,28.074074074074062,0)" xlink:href="#bx"/></g><path fill="#fcce14" d="M135-143c-3-34-86-38-87 0 15 53 115 12 119 90S17 21 10-45l28-5c4 36 97 45 98 0-10-56-113-15-118-90-4-57 82-63 122-42 12 7 21 19 24 35" id="by"/><path fill="#fcce14" d="M114-163C36-179 61-72 57 0H25l-1-190h30c1 12-1 29 2 39 6-27 23-49 58-41v29" id="bz"/><g id="l"><use transform="matrix(0.03703703703703702,0,0,0.03703703703703702,0,0)" xlink:href="#by"/><use transform="matrix(0.03703703703703702,0,0,0.03703703703703702,6.666666666666663,0)" xlink:href="#bk"/><use transform="matrix(0.03703703703703702,0,0,0.03703703703703702,10.370370370370367,0)" xlink:href="#bz"/></g><path fill="#333" d="M210-169c-67 3-38 105-44 169h-31v-121c0-29-5-50-35-48C34-165 62-65 56 0H25l-1-190h30c1 10-1 24 2 32 10-44 99-50 107 0 11-21 27-35 58-36 85-2 47 119 55 194h-31v-121c0-29-5-49-35-48" id="bA"/><g id="m"><use transform="matrix(0.03703703703703702,0,0,0.03703703703703702,0,0)" xlink:href="#bq"/><use transform="matrix(0.03703703703703702,0,0,0.03703703703703702,7.407407407407404,0)" xlink:href="#aQ"/><use transform="matrix(0.03703703703703702,0,0,0.03703703703703702,14.814814814814808,0)" xlink:href="#bA"/><use transform="matrix(0.03703703703703702,0,0,0.03703703703703702,25.88888888888888,0)" xlink:href="#br"/></g><path fill="#333" d="M84 4C32 4 15-41 15-95c0-55 18-99 73-99 29 0 47 12 58 34l2-30h48l-1 265h-49V-32C136-9 114 4 84 4zm21-34c32 0 41-29 41-66 0-36-9-64-40-64-33 0-39 30-40 65 0 43 13 65 39 65" id="bB"/><path fill="#333" d="M85 4C-2 5 27-109 22-190h50c7 57-23 150 33 157 60-5 35-97 40-157h50l1 190h-47c-2-12 1-28-3-38-12 25-28 42-61 42" id="bC"/><path fill="#333" d="M133-34C117-15 103 5 69 4 32 3 11-16 11-54c-1-60 55-63 116-61 1-26-3-47-28-47-18 1-26 9-28 27l-52-2c7-38 36-58 82-57s74 22 75 68l1 82c-1 14 12 18 25 15v27c-30 8-71 5-69-32zm-48 3c29 0 43-24 42-57-32 0-66-3-65 30 0 17 8 27 23 27" id="bD"/><path fill="#333" d="M115-3C79 11 28 4 28-45v-112H4v-33h27l15-45h31v45h36v33H77v99c-1 23 16 31 38 25v30" id="bE"/><g id="n"><use transform="matrix(0.03703703703703702,0,0,0.03703703703703702,0,0)" xlink:href="#bB"/><use transform="matrix(0.03703703703703702,0,0,0.03703703703703702,8.111111111111107,0)" xlink:href="#bC"/><use transform="matrix(0.03703703703703702,0,0,0.03703703703703702,16.222222222222214,0)" xlink:href="#bD"/><use transform="matrix(0.03703703703703702,0,0,0.03703703703703702,23.62962962962962,0)" xlink:href="#bv"/><use transform="matrix(0.03703703703703702,0,0,0.03703703703703702,31.740740740740726,0)" xlink:href="#bE"/><use transform="matrix(0.03703703703703702,0,0,0.03703703703703702,36.14814814814813,0)" xlink:href="#bg"/><use transform="matrix(0.03703703703703702,0,0,0.03703703703703702,39.85185185185183,0)" xlink:href="#bf"/><use transform="matrix(0.03703703703703702,0,0,0.03703703703703702,47.96296296296294,0)" xlink:href="#bD"/><use transform="matrix(0.03703703703703702,0,0,0.03703703703703702,55.370370370370345,0)" xlink:href="#bf"/><use transform="matrix(0.03703703703703702,0,0,0.03703703703703702,63.48148148148145,0)" xlink:href="#bx"/></g><path fill="#333" d="M145-31C134-9 116 4 85 4 32 4 16-35 15-94c0-59 17-99 70-100 32-1 48 14 60 33 0-11-1-24 2-32h30l-1 268h-32zM93-21c41 0 51-33 51-76s-8-73-50-73c-40 0-46 35-46 75s5 74 45 74" id="bF"/><g id="o"><use transform="matrix(0.03703703703703702,0,0,0.03703703703703702,0,0)" xlink:href="#bF"/><use transform="matrix(0.03703703703703702,0,0,0.03703703703703702,7.407407407407404,0)" xlink:href="#aS"/><use transform="matrix(0.03703703703703702,0,0,0.03703703703703702,14.814814814814808,0)" xlink:href="#bt"/><use transform="matrix(0.03703703703703702,0,0,0.03703703703703702,22.222222222222214,0)" xlink:href="#bq"/><use transform="matrix(0.03703703703703702,0,0,0.03703703703703702,29.629629629629616,0)" xlink:href="#aT"/><use transform="matrix(0.03703703703703702,0,0,0.03703703703703702,33.333333333333314,0)" xlink:href="#bo"/><use transform="matrix(0.03703703703703702,0,0,0.03703703703703702,36.25925925925924,0)" xlink:href="#aR"/><use transform="matrix(0.03703703703703702,0,0,0.03703703703703702,43.66666666666664,0)" xlink:href="#bt"/><use transform="matrix(0.03703703703703702,0,0,0.03703703703703702,51.07407407407404,0)" xlink:href="#aR"/><use transform="matrix(0.03703703703703702,0,0,0.03703703703703702,58.48148148148146,0)" xlink:href="#br"/></g><path fill="#333" d="M128 0H69L1-190h53L99-40l48-150h52" id="bG"/><path fill="#333" d="M25 0v-261h50V0H25" id="bH"/><path fill="#333" d="M135-150c-39-12-60 13-60 57V0H25l-1-190h47c2 13-1 29 3 40 6-28 27-53 61-41v41" id="bI"/><g id="p"><use transform="matrix(0.03703703703703702,0,0,0.03703703703703702,0,0)" xlink:href="#bG"/><use transform="matrix(0.03703703703703702,0,0,0.03703703703703702,7.407407407407404,0)" xlink:href="#bD"/><use transform="matrix(0.03703703703703702,0,0,0.03703703703703702,14.814814814814808,0)" xlink:href="#bH"/><use transform="matrix(0.03703703703703702,0,0,0.03703703703703702,18.51851851851851,0)" xlink:href="#be"/><use transform="matrix(0.03703703703703702,0,0,0.03703703703703702,26.629629629629616,0)" xlink:href="#bI"/></g><path fill="#fcce14" d="M101-234c-31-9-42 10-38 44h38v23H63V0H32v-167H5v-23h27c-7-52 17-82 69-68v24" id="bJ"/><path fill="#fcce14" d="M24 0v-261h32V0H24" id="bK"/><path fill="#fcce14" d="M100-194c62-1 85 37 85 99 1 63-27 99-86 99S16-35 15-95c0-66 28-99 85-99zM99-20c44 1 53-31 53-75 0-43-8-75-51-75s-53 32-53 75 10 74 51 75" id="bL"/><path fill="#fcce14" d="M141-36C126-15 110 5 73 4 37 3 15-17 15-53c-1-64 63-63 125-63 3-35-9-54-41-54-24 1-41 7-42 31l-33-3c5-37 33-52 76-52 45 0 72 20 72 64v82c-1 20 7 32 28 27v20c-31 9-61-2-59-35zM48-53c0 20 12 33 32 33 41-3 63-29 60-74-43 2-92-5-92 41" id="bM"/><g id="q"><use transform="matrix(0.03703703703703702,0,0,0.03703703703703702,0,0)" xlink:href="#bJ"/><use transform="matrix(0.03703703703703702,0,0,0.03703703703703702,3.703703703703702,0)" xlink:href="#bK"/><use transform="matrix(0.03703703703703702,0,0,0.03703703703703702,6.629629629629625,0)" xlink:href="#bL"/><use transform="matrix(0.03703703703703702,0,0,0.03703703703703702,14.037037037037031,0)" xlink:href="#bM"/><use transform="matrix(0.03703703703703702,0,0,0.03703703703703702,21.444444444444436,0)" xlink:href="#bk"/></g><path fill="#333" d="M108 0H70L1-190h34L89-25l56-165h34" id="bN"/><path fill="#333" d="M24 0v-261h32V0H24" id="bO"/><g id="r"><use transform="matrix(0.03703703703703702,0,0,0.03703703703703702,0,0)" xlink:href="#bN"/><use transform="matrix(0.03703703703703702,0,0,0.03703703703703702,6.666666666666663,0)" xlink:href="#bt"/><use transform="matrix(0.03703703703703702,0,0,0.03703703703703702,14.074074074074067,0)" xlink:href="#bO"/><use transform="matrix(0.03703703703703702,0,0,0.03703703703703702,16.999999999999993,0)" xlink:href="#aQ"/><use transform="matrix(0.03703703703703702,0,0,0.03703703703703702,24.407407407407398,0)" xlink:href="#aP"/></g><g id="s"><use transform="matrix(0.03703703703703702,0,0,0.03703703703703702,0,0)" xlink:href="#bu"/><use transform="matrix(0.03703703703703702,0,0,0.03703703703703702,7.407407407407404,0)" xlink:href="#aP"/><use transform="matrix(0.03703703703703702,0,0,0.03703703703703702,11.81481481481481,0)" xlink:href="#aQ"/><use transform="matrix(0.03703703703703702,0,0,0.03703703703703702,19.222222222222214,0)" xlink:href="#aR"/><use transform="matrix(0.03703703703703702,0,0,0.03703703703703702,26.62962962962962,0)" xlink:href="#aS"/><use transform="matrix(0.03703703703703702,0,0,0.03703703703703702,34.037037037037024,0)" xlink:href="#aT"/><use transform="matrix(0.03703703703703702,0,0,0.03703703703703702,37.740740740740726,0)" xlink:href="#aQ"/></g><path fill="#fc9432" d="M85-194c31 0 48 13 60 33l-1-100h32l1 261h-30c-2-10 0-23-3-31C134-8 116 4 85 4 32 4 16-35 15-94c0-66 23-100 70-100zm9 24c-40 0-46 34-46 75 0 40 6 74 45 74 42 0 51-32 51-76 0-42-9-74-50-73" id="bP"/><path fill="#fc9432" d="M100-194c63 0 86 42 84 106H49c0 40 14 67 53 68 26 1 43-12 49-29l28 8c-11 28-37 45-77 45C44 4 14-33 15-96c1-61 26-98 85-98zm52 81c6-60-76-77-97-28-3 7-6 17-6 28h103" id="bQ"/><path fill="#fc9432" d="M101-234c-31-9-42 10-38 44h38v23H63V0H32v-167H5v-23h27c-7-52 17-82 69-68v24" id="bR"/><g id="t"><use transform="matrix(0.03703703703703702,0,0,0.03703703703703702,0,0)" xlink:href="#bP"/><use transform="matrix(0.03703703703703702,0,0,0.03703703703703702,7.407407407407404,0)" xlink:href="#bQ"/><use transform="matrix(0.03703703703703702,0,0,0.03703703703703702,14.814814814814808,0)" xlink:href="#bR"/></g><path fill="#635dff" d="M-5 72V49h209v23H-5" id="bS"/><path fill="#635dff" d="M24-231v-30h32v30H24zM24 0v-190h32V0H24" id="bT"/><path fill="#635dff" d="M117-194c89-4 53 116 60 194h-32v-121c0-31-8-49-39-48C34-167 62-67 57 0H25l-1-190h30c1 10-1 24 2 32 11-22 29-35 61-36" id="bU"/><path fill="#635dff" d="M59-47c-2 24 18 29 38 22v24C64 9 27 4 27-40v-127H5v-23h24l9-43h21v43h35v23H59v120" id="bV"/><path fill="#333" d="M87 75C49 33 22-17 22-94c0-76 28-126 65-167h31c-38 41-64 92-64 168S80 34 118 75H87" id="bW"/><path fill="#333" d="M33-154v-36h34v36H33zM33 0v-36h34V0H33" id="bX"/><g id="u"><use transform="matrix(0.03703703703703702,0,0,0.03703703703703702,0,0)" xlink:href="#bS"/><use transform="matrix(0.03703703703703702,0,0,0.03703703703703702,7.407407407407404,0)" xlink:href="#bS"/><use transform="matrix(0.03703703703703702,0,0,0.03703703703703702,14.814814814814808,0)" xlink:href="#bT"/><use transform="matrix(0.03703703703703702,0,0,0.03703703703703702,17.740740740740733,0)" xlink:href="#bU"/><use transform="matrix(0.03703703703703702,0,0,0.03703703703703702,25.148148148148138,0)" xlink:href="#bT"/><use transform="matrix(0.03703703703703702,0,0,0.03703703703703702,28.074074074074062,0)" xlink:href="#bV"/><use transform="matrix(0.03703703703703702,0,0,0.03703703703703702,31.777777777777764,0)" xlink:href="#bS"/><use transform="matrix(0.03703703703703702,0,0,0.03703703703703702,39.18518518518517,0)" xlink:href="#bS"/><use transform="matrix(0.03703703703703702,0,0,0.03703703703703702,46.592592592592574,0)" xlink:href="#bW"/><use transform="matrix(0.03703703703703702,0,0,0.03703703703703702,50.99999999999998,0)" xlink:href="#bo"/><use transform="matrix(0.03703703703703702,0,0,0.03703703703703702,53.9259259259259,0)" xlink:href="#aR"/><use transform="matrix(0.03703703703703702,0,0,0.03703703703703702,61.33333333333331,0)" xlink:href="#bX"/></g><path fill="#333" d="M68-38c1 34 0 65-14 84H32c9-13 17-26 17-46H33v-38h35" id="bY"/><g id="v"><use transform="matrix(0.03703703703703702,0,0,0.03703703703703702,0,0)" xlink:href="#bo"/><use transform="matrix(0.03703703703703702,0,0,0.03703703703703702,2.9259259259259247,0)" xlink:href="#bq"/><use transform="matrix(0.03703703703703702,0,0,0.03703703703703702,10.333333333333329,0)" xlink:href="#aT"/><use transform="matrix(0.03703703703703702,0,0,0.03703703703703702,14.037037037037031,0)" xlink:href="#bY"/></g><g id="w"><use transform="matrix(0.03703703703703702,0,0,0.03703703703703702,0,0)" xlink:href="#bq"/><use transform="matrix(0.03703703703703702,0,0,0.03703703703703702,7.407407407407404,0)" xlink:href="#aQ"/><use transform="matrix(0.03703703703703702,0,0,0.03703703703703702,14.814814814814808,0)" xlink:href="#bA"/><use transform="matrix(0.03703703703703702,0,0,0.03703703703703702,25.88888888888888,0)" xlink:href="#br"/><use transform="matrix(0.03703703703703702,0,0,0.03703703703703702,33.29629629629628,0)" xlink:href="#bX"/></g><path fill="#333" d="M135-143c-3-34-86-38-87 0 15 53 115 12 119 90S17 21 10-45l28-5c4 36 97 45 98 0-10-56-113-15-118-90-4-57 82-63 122-42 12 7 21 19 24 35" id="bZ"/><g id="x"><use transform="matrix(0.03703703703703702,0,0,0.03703703703703702,0,0)" xlink:href="#bZ"/><use transform="matrix(0.03703703703703702,0,0,0.03703703703703702,6.666666666666663,0)" xlink:href="#aT"/><use transform="matrix(0.03703703703703702,0,0,0.03703703703703702,10.370370370370367,0)" xlink:href="#aP"/><use transform="matrix(0.03703703703703702,0,0,0.03703703703703702,14.037037037037031,0)" xlink:href="#bY"/></g><g id="y"><use transform="matrix(0.03703703703703702,0,0,0.03703703703703702,0,0)" xlink:href="#bF"/><use transform="matrix(0.03703703703703702,0,0,0.03703703703703702,7.407407407407404,0)" xlink:href="#aS"/><use transform="matrix(0.03703703703703702,0,0,0.03703703703703702,14.814814814814808,0)" xlink:href="#bt"/><use transform="matrix(0.03703703703703702,0,0,0.03703703703703702,22.222222222222214,0)" xlink:href="#bq"/><use transform="matrix(0.03703703703703702,0,0,0.03703703703703702,29.629629629629616,0)" xlink:href="#aT"/><use transform="matrix(0.03703703703703702,0,0,0.03703703703703702,33.333333333333314,0)" xlink:href="#bo"/><use transform="matrix(0.03703703703703702,0,0,0.03703703703703702,36.25925925925924,0)" xlink:href="#aR"/><use transform="matrix(0.03703703703703702,0,0,0.03703703703703702,43.66666666666664,0)" xlink:href="#bt"/><use transform="matrix(0.03703703703703702,0,0,0.03703703703703702,51.07407407407404,0)" xlink:href="#aR"/><use transform="matrix(0.03703703703703702,0,0,0.03703703703703702,58.48148148148146,0)" xlink:href="#br"/><use transform="matrix(0.03703703703703702,0,0,0.03703703703703702,65.88888888888886,0)" xlink:href="#bX"/></g><g id="z"><use transform="matrix(0.03703703703703702,0,0,0.03703703703703702,0,0)" xlink:href="#bu"/><use transform="matrix(0.03703703703703702,0,0,0.03703703703703702,7.407407407407404,0)" xlink:href="#aP"/><use transform="matrix(0.03703703703703702,0,0,0.03703703703703702,11.81481481481481,0)" xlink:href="#br"/><use transform="matrix(0.03703703703703702,0,0,0.03703703703703702,19.222222222222214,0)" xlink:href="#bm"/><use transform="matrix(0.03703703703703702,0,0,0.03703703703703702,25.88888888888888,0)" xlink:href="#aQ"/><use transform="matrix(0.03703703703703702,0,0,0.03703703703703702,33.29629629629628,0)" xlink:href="#bX"/></g><path fill="#333" d="M33-261c38 41 65 92 65 168S71 34 33 75H2C39 34 66-17 66-93S39-220 2-261h31" id="ca"/><g id="A"><use transform="matrix(0.03703703703703702,0,0,0.03703703703703702,0,0)" xlink:href="#bs"/><use transform="matrix(0.03703703703703702,0,0,0.03703703703703702,3.703703703703702,0)" xlink:href="#bO"/><use transform="matrix(0.03703703703703702,0,0,0.03703703703703702,6.629629629629625,0)" xlink:href="#aQ"/><use transform="matrix(0.03703703703703702,0,0,0.03703703703703702,14.037037037037031,0)" xlink:href="#bt"/><use transform="matrix(0.03703703703703702,0,0,0.03703703703703702,21.444444444444436,0)" xlink:href="#aT"/><use transform="matrix(0.03703703703703702,0,0,0.03703703703703702,25.148148148148138,0)" xlink:href="#ca"/><use transform="matrix(0.03703703703703702,0,0,0.03703703703703702,29.555555555555543,0)" xlink:href="#bX"/></g><path fill="#333" d="M62-168c30 0 50 19 50 48S92-70 62-70c-29 0-48-21-48-50s20-48 48-48" id="cb"/><use transform="matrix(0.03703703703703702,0,0,0.03703703703703702,0,0)" xlink:href="#cb" id="B"/><path fill="#333" d="M212-179c-10-28-35-45-73-45-59 0-87 40-87 99 0 60 29 101 89 101 43 0 62-24 78-52l27 14C228-24 195 4 139 4 59 4 22-46 18-125c-6-104 99-153 187-111 19 9 31 26 39 46" id="cc"/><g id="C"><use transform="matrix(0.03703703703703702,0,0,0.03703703703703702,0,0)" xlink:href="#cc"/><use transform="matrix(0.03703703703703702,0,0,0.03703703703703702,9.592592592592588,0)" xlink:href="#aQ"/><use transform="matrix(0.03703703703703702,0,0,0.03703703703703702,16.999999999999993,0)" xlink:href="#bq"/><use transform="matrix(0.03703703703703702,0,0,0.03703703703703702,24.407407407407398,0)" xlink:href="#bZ"/><use transform="matrix(0.03703703703703702,0,0,0.03703703703703702,31.074074074074062,0)" xlink:href="#aT"/><use transform="matrix(0.03703703703703702,0,0,0.03703703703703702,34.777777777777764,0)" xlink:href="#aP"/><use transform="matrix(0.03703703703703702,0,0,0.03703703703703702,39.18518518518517,0)" xlink:href="#aS"/><use transform="matrix(0.03703703703703702,0,0,0.03703703703703702,46.592592592592574,0)" xlink:href="#aT"/><use transform="matrix(0.03703703703703702,0,0,0.03703703703703702,50.296296296296276,0)" xlink:href="#aQ"/><use transform="matrix(0.03703703703703702,0,0,0.03703703703703702,57.70370370370368,0)" xlink:href="#aP"/></g><path fill="#333" d="M141-36C126-15 110 5 73 4 37 3 15-17 15-53c-1-64 63-63 125-63 3-35-9-54-41-54-24 1-41 7-42 31l-33-3c5-37 33-52 76-52 45 0 72 20 72 64v82c-1 20 7 32 28 27v20c-31 9-61-2-59-35zM48-53c0 20 12 33 32 33 41-3 63-29 60-74-43 2-92-5-92 41zm117-205c-3 23-9 48-36 47-26-1-65-44-74 0H39c4-23 8-48 36-47s64 44 74 0h16" id="cd"/><g id="D"><use transform="matrix(0.03703703703703702,0,0,0.03703703703703702,0,0)" xlink:href="#bu"/><use transform="matrix(0.03703703703703702,0,0,0.03703703703703702,7.407407407407404,0)" xlink:href="#bt"/><use transform="matrix(0.03703703703703702,0,0,0.03703703703703702,14.814814814814808,0)" xlink:href="#aR"/><use transform="matrix(0.03703703703703702,0,0,0.03703703703703702,22.222222222222214,0)" xlink:href="#aP"/><use transform="matrix(0.03703703703703702,0,0,0.03703703703703702,26.629629629629616,0)" xlink:href="#cd"/><use transform="matrix(0.03703703703703702,0,0,0.03703703703703702,34.03703703703702,0)" xlink:href="#aQ"/></g><g id="E"><use transform="matrix(0.03703703703703702,0,0,0.03703703703703702,0,0)" xlink:href="#aR"/><use transform="matrix(0.03703703703703702,0,0,0.03703703703703702,7.407407407407404,0)" xlink:href="#aQ"/></g><path fill="#333" d="M33 0v-38h34V0H33" id="ce"/><g id="F"><use transform="matrix(0.03703703703703702,0,0,0.03703703703703702,0,0)" xlink:href="#bu"/><use transform="matrix(0.03703703703703702,0,0,0.03703703703703702,7.407407407407404,0)" xlink:href="#aP"/><use transform="matrix(0.03703703703703702,0,0,0.03703703703703702,11.81481481481481,0)" xlink:href="#aQ"/><use transform="matrix(0.03703703703703702,0,0,0.03703703703703702,19.222222222222214,0)" xlink:href="#aR"/><use transform="matrix(0.03703703703703702,0,0,0.03703703703703702,26.62962962962962,0)" xlink:href="#aS"/><use transform="matrix(0.03703703703703702,0,0,0.03703703703703702,34.037037037037024,0)" xlink:href="#aT"/><use transform="matrix(0.03703703703703702,0,0,0.03703703703703702,37.740740740740726,0)" xlink:href="#aQ"/><use transform="matrix(0.03703703703703702,0,0,0.03703703703703702,45.14814814814813,0)" xlink:href="#ce"/></g><g id="G"><use transform="matrix(0.03703703703703702,0,0,0.03703703703703702,0,0)" xlink:href="#aU"/><use transform="matrix(0.03703703703703702,0,0,0.03703703703703702,8.888888888888886,0)" xlink:href="#bu"/><use transform="matrix(0.03703703703703702,0,0,0.03703703703703702,16.29629629629629,0)" xlink:href="#bn"/><use transform="matrix(0.03703703703703702,0,0,0.03703703703703702,23.703703703703695,0)" xlink:href="#bZ"/></g><g id="H"><use transform="matrix(0.03703703703703702,0,0,0.03703703703703702,0,0)" xlink:href="#bm"/><use transform="matrix(0.03703703703703702,0,0,0.03703703703703702,6.666666666666663,0)" xlink:href="#aP"/><use transform="matrix(0.03703703703703702,0,0,0.03703703703703702,11.074074074074069,0)" xlink:href="#bo"/><use transform="matrix(0.03703703703703702,0,0,0.03703703703703702,13.999999999999991,0)" xlink:href="#bt"/><use transform="matrix(0.03703703703703702,0,0,0.03703703703703702,21.407407407407398,0)" xlink:href="#aR"/><use transform="matrix(0.03703703703703702,0,0,0.03703703703703702,28.814814814814802,0)" xlink:href="#aQ"/></g><g id="I"><use transform="matrix(0.03703703703703702,0,0,0.03703703703703702,0,0)" xlink:href="#aS"/><use transform="matrix(0.03703703703703702,0,0,0.03703703703703702,7.407407407407404,0)" xlink:href="#bA"/></g><g id="J"><use transform="matrix(0.03703703703703702,0,0,0.03703703703703702,0,0)" xlink:href="#bu"/><use transform="matrix(0.03703703703703702,0,0,0.03703703703703702,7.407407407407404,0)" xlink:href="#aP"/><use transform="matrix(0.03703703703703702,0,0,0.03703703703703702,11.81481481481481,0)" xlink:href="#aQ"/><use transform="matrix(0.03703703703703702,0,0,0.03703703703703702,19.222222222222214,0)" xlink:href="#aR"/><use transform="matrix(0.03703703703703702,0,0,0.03703703703703702,26.62962962962962,0)" xlink:href="#aS"/><use transform="matrix(0.03703703703703702,0,0,0.03703703703703702,34.037037037037024,0)" xlink:href="#aT"/><use transform="matrix(0.03703703703703702,0,0,0.03703703703703702,37.740740740740726,0)" xlink:href="#aQ"/><use transform="matrix(0.03703703703703702,0,0,0.03703703703703702,45.14814814814813,0)" xlink:href="#bY"/></g><g id="K"><use transform="matrix(0.03703703703703702,0,0,0.03703703703703702,0,0)" xlink:href="#br"/><use transform="matrix(0.03703703703703702,0,0,0.03703703703703702,7.407407407407404,0)" xlink:href="#bZ"/><use transform="matrix(0.03703703703703702,0,0,0.03703703703703702,14.074074074074067,0)" xlink:href="#aT"/><use transform="matrix(0.03703703703703702,0,0,0.03703703703703702,17.777777777777768,0)" xlink:href="#br"/></g><path fill="#333" d="M141-36C126-15 110 5 73 4 37 3 15-17 15-53c-1-64 63-63 125-63 3-35-9-54-41-54-24 1-41 7-42 31l-33-3c5-37 33-52 76-52 45 0 72 20 72 64v82c-1 20 7 32 28 27v20c-31 9-61-2-59-35zM48-53c0 20 12 33 32 33 41-3 63-29 60-74-43 2-92-5-92 41zm25-158c8-23 27-35 38-54h36v5l-58 49H73" id="cf"/><g id="L"><use transform="matrix(0.03703703703703702,0,0,0.03703703703703702,0,0)" xlink:href="#bu"/><use transform="matrix(0.03703703703703702,0,0,0.03703703703703702,7.407407407407404,0)" xlink:href="#aQ"/><use transform="matrix(0.03703703703703702,0,0,0.03703703703703702,14.814814814814808,0)" xlink:href="#aR"/><use transform="matrix(0.03703703703703702,0,0,0.03703703703703702,22.222222222222214,0)" xlink:href="#br"/><use transform="matrix(0.03703703703703702,0,0,0.03703703703703702,29.629629629629616,0)" xlink:href="#aP"/><use transform="matrix(0.03703703703703702,0,0,0.03703703703703702,34.037037037037024,0)" xlink:href="#cf"/></g><g id="M"><use transform="matrix(0.03703703703703702,0,0,0.03703703703703702,0,0)" xlink:href="#aT"/><use transform="matrix(0.03703703703703702,0,0,0.03703703703703702,3.703703703703702,0)" xlink:href="#br"/><use transform="matrix(0.03703703703703702,0,0,0.03703703703703702,11.111111111111107,0)" xlink:href="#aP"/></g><g id="N"><use transform="matrix(0.03703703703703702,0,0,0.03703703703703702,0,0)" xlink:href="#bZ"/><use transform="matrix(0.03703703703703702,0,0,0.03703703703703702,6.666666666666663,0)" xlink:href="#aS"/><use transform="matrix(0.03703703703703702,0,0,0.03703703703703702,14.074074074074067,0)" xlink:href="#bt"/></g><g id="O"><use transform="matrix(0.03703703703703702,0,0,0.03703703703703702,0,0)" xlink:href="#bF"/><use transform="matrix(0.03703703703703702,0,0,0.03703703703703702,7.407407407407404,0)" xlink:href="#aS"/><use transform="matrix(0.03703703703703702,0,0,0.03703703703703702,14.814814814814808,0)" xlink:href="#bt"/><use transform="matrix(0.03703703703703702,0,0,0.03703703703703702,22.222222222222214,0)" xlink:href="#bq"/><use transform="matrix(0.03703703703703702,0,0,0.03703703703703702,29.629629629629616,0)" xlink:href="#aT"/><use transform="matrix(0.03703703703703702,0,0,0.03703703703703702,33.333333333333314,0)" xlink:href="#bo"/><use transform="matrix(0.03703703703703702,0,0,0.03703703703703702,36.25925925925924,0)" xlink:href="#aR"/><use transform="matrix(0.03703703703703702,0,0,0.03703703703703702,43.66666666666664,0)" xlink:href="#bt"/><use transform="matrix(0.03703703703703702,0,0,0.03703703703703702,51.07407407407404,0)" xlink:href="#aR"/><use transform="matrix(0.03703703703703702,0,0,0.03703703703703702,58.48148148148146,0)" xlink:href="#br"/></g><use transform="matrix(0.03703703703703702,0,0,0.03703703703703702,0,0)" xlink:href="#br" id="P"/><path fill="#333" d="M96-169c-40 0-48 33-48 73s9 75 48 75c24 0 41-14 43-38l32 2c-6 37-31 61-74 61-59 0-76-41-82-99-10-93 101-131 147-64 4 7 5 14 7 22l-32 3c-4-21-16-35-41-35zm3 187c19-1 33 8 33 26 0 31-30 33-64 32V58c18 2 39 4 41-13 1-15-18-13-34-13L87 0h19" id="cg"/><g id="Q"><use transform="matrix(0.03703703703703702,0,0,0.03703703703703702,0,0)" xlink:href="#bu"/><use transform="matrix(0.03703703703703702,0,0,0.03703703703703702,7.407407407407404,0)" xlink:href="#aP"/><use transform="matrix(0.03703703703703702,0,0,0.03703703703703702,11.81481481481481,0)" xlink:href="#br"/><use transform="matrix(0.03703703703703702,0,0,0.03703703703703702,19.222222222222214,0)" xlink:href="#cg"/><use transform="matrix(0.03703703703703702,0,0,0.03703703703703702,25.88888888888888,0)" xlink:href="#aQ"/></g><g id="R"><use transform="matrix(0.03703703703703702,0,0,0.03703703703703702,0,0)" xlink:href="#bt"/><use transform="matrix(0.03703703703703702,0,0,0.03703703703703702,7.407407407407404,0)" xlink:href="#bO"/><use transform="matrix(0.03703703703703702,0,0,0.03703703703703702,10.333333333333329,0)" xlink:href="#aT"/><use transform="matrix(0.03703703703703702,0,0,0.03703703703703702,14.037037037037031,0)" xlink:href="#br"/><use transform="matrix(0.03703703703703702,0,0,0.03703703703703702,21.444444444444436,0)" xlink:href="#aP"/><use transform="matrix(0.03703703703703702,0,0,0.03703703703703702,25.85185185185184,0)" xlink:href="#bt"/><use transform="matrix(0.03703703703703702,0,0,0.03703703703703702,33.259259259259245,0)" xlink:href="#aR"/><use transform="matrix(0.03703703703703702,0,0,0.03703703703703702,40.66666666666665,0)" xlink:href="#aQ"/></g><use transform="matrix(0.03703703703703702,0,0,0.03703703703703702,0,0)" xlink:href="#ba" id="S"/><g id="T"><use transform="matrix(0.03703703703703702,0,0,0.03703703703703702,0,0)" xlink:href="#bm"/><use transform="matrix(0.03703703703703702,0,0,0.03703703703703702,6.666666666666663,0)" xlink:href="#bn"/><use transform="matrix(0.03703703703703702,0,0,0.03703703703703702,14.074074074074067,0)" xlink:href="#aR"/><use transform="matrix(0.03703703703703702,0,0,0.03703703703703702,21.481481481481474,0)" xlink:href="#bo"/><use transform="matrix(0.03703703703703702,0,0,0.03703703703703702,24.407407407407394,0)" xlink:href="#bp"/><use transform="matrix(0.03703703703703702,0,0,0.03703703703703702,31.814814814814795,0)" xlink:href="#aQ"/></g><g id="U"><use transform="matrix(0.03703703703703702,0,0,0.03703703703703702,0,0)" xlink:href="#bu"/><use transform="matrix(0.03703703703703702,0,0,0.03703703703703702,7.407407407407404,0)" xlink:href="#aP"/><use transform="matrix(0.03703703703703702,0,0,0.03703703703703702,11.81481481481481,0)" xlink:href="#aQ"/><use transform="matrix(0.03703703703703702,0,0,0.03703703703703702,19.222222222222214,0)" xlink:href="#aR"/><use transform="matrix(0.03703703703703702,0,0,0.03703703703703702,26.62962962962962,0)" xlink:href="#aS"/><use transform="matrix(0.03703703703703702,0,0,0.03703703703703702,34.037037037037024,0)" xlink:href="#aT"/><use transform="matrix(0.03703703703703702,0,0,0.03703703703703702,37.740740740740726,0)" xlink:href="#aQ"/></g><g id="V"><use transform="matrix(0.03703703703703702,0,0,0.03703703703703702,0,0)" xlink:href="#aR"/><use transform="matrix(0.03703703703703702,0,0,0.03703703703703702,7.407407407407404,0)" xlink:href="#br"/><use transform="matrix(0.03703703703703702,0,0,0.03703703703703702,14.814814814814808,0)" xlink:href="#bN"/><use transform="matrix(0.03703703703703702,0,0,0.03703703703703702,21.481481481481474,0)" xlink:href="#br"/><use transform="matrix(0.03703703703703702,0,0,0.03703703703703702,28.888888888888875,0)" xlink:href="#aP"/><use transform="matrix(0.03703703703703702,0,0,0.03703703703703702,33.29629629629628,0)" xlink:href="#cf"/></g><g id="W"><use transform="matrix(0.03703703703703702,0,0,0.03703703703703702,0,0)" xlink:href="#bZ"/><use transform="matrix(0.03703703703703702,0,0,0.03703703703703702,6.666666666666663,0)" xlink:href="#br"/><use transform="matrix(0.03703703703703702,0,0,0.03703703703703702,14.074074074074067,0)" xlink:href="#aP"/></g><g id="X"><use transform="matrix(0.03703703703703702,0,0,0.03703703703703702,0,0)" xlink:href="#bp"/><use transform="matrix(0.03703703703703702,0,0,0.03703703703703702,7.407407407407404,0)" xlink:href="#br"/><use transform="matrix(0.03703703703703702,0,0,0.03703703703703702,14.814814814814808,0)" xlink:href="#aP"/><use transform="matrix(0.03703703703703702,0,0,0.03703703703703702,19.222222222222214,0)" xlink:href="#bt"/><use transform="matrix(0.03703703703703702,0,0,0.03703703703703702,26.62962962962962,0)" xlink:href="#aR"/><use transform="matrix(0.03703703703703702,0,0,0.03703703703703702,34.037037037037024,0)" xlink:href="#aQ"/></g><g id="Y"><use transform="matrix(0.03703703703703702,0,0,0.03703703703703702,0,0)" xlink:href="#bt"/><use transform="matrix(0.03703703703703702,0,0,0.03703703703703702,7.407407407407404,0)" xlink:href="#aS"/><use transform="matrix(0.03703703703703702,0,0,0.03703703703703702,14.814814814814808,0)" xlink:href="#aT"/><use transform="matrix(0.03703703703703702,0,0,0.03703703703703702,18.51851851851851,0)" xlink:href="#aQ"/><use transform="matrix(0.03703703703703702,0,0,0.03703703703703702,25.925925925925913,0)" xlink:href="#bA"/><use transform="matrix(0.03703703703703702,0,0,0.03703703703703702,36.999999999999986,0)" xlink:href="#bt"/><use transform="matrix(0.03703703703703702,0,0,0.03703703703703702,44.40740740740739,0)" xlink:href="#aT"/><use transform="matrix(0.03703703703703702,0,0,0.03703703703703702,48.11111111111109,0)" xlink:href="#bo"/><use transform="matrix(0.03703703703703702,0,0,0.03703703703703702,51.03703703703702,0)" xlink:href="#bm"/><use transform="matrix(0.03703703703703702,0,0,0.03703703703703702,57.70370370370368,0)" xlink:href="#bt"/><use transform="matrix(0.03703703703703702,0,0,0.03703703703703702,65.11111111111109,0)" xlink:href="#bA"/><use transform="matrix(0.03703703703703702,0,0,0.03703703703703702,76.18518518518518,0)" xlink:href="#br"/><use transform="matrix(0.03703703703703702,0,0,0.03703703703703702,83.59259259259257,0)" xlink:href="#bq"/><use transform="matrix(0.03703703703703702,0,0,0.03703703703703702,90.99999999999997,0)" xlink:href="#aT"/><use transform="matrix(0.03703703703703702,0,0,0.03703703703703702,94.70370370370367,0)" xlink:href="#br"/></g><path fill="#635dff" d="M115-194c53 0 69 39 70 98 0 66-23 100-70 100C84 3 66-7 56-30L54 0H23l1-261h32v101c10-23 28-34 59-34zm-8 174c40 0 45-34 45-75 0-40-5-75-45-74-42 0-51 32-51 76 0 43 10 73 51 73" id="ch"/><path fill="#635dff" d="M84 4C-5 8 30-112 23-190h32v120c0 31 7 50 39 49 72-2 45-101 50-169h31l1 190h-30c-1-10 1-25-2-33-11 22-28 36-60 37" id="ci"/><path fill="#635dff" d="M135-143c-3-34-86-38-87 0 15 53 115 12 119 90S17 21 10-45l28-5c4 36 97 45 98 0-10-56-113-15-118-90-4-57 82-63 122-42 12 7 21 19 24 35" id="cj"/><path fill="#635dff" d="M96-169c-40 0-48 33-48 73s9 75 48 75c24 0 41-14 43-38l32 2c-6 37-31 61-74 61-59 0-76-41-82-99-10-93 101-131 147-64 4 7 5 14 7 22l-32 3c-4-21-16-35-41-35" id="ck"/><path fill="#635dff" d="M141-36C126-15 110 5 73 4 37 3 15-17 15-53c-1-64 63-63 125-63 3-35-9-54-41-54-24 1-41 7-42 31l-33-3c5-37 33-52 76-52 45 0 72 20 72 64v82c-1 20 7 32 28 27v20c-31 9-61-2-59-35zM48-53c0 20 12 33 32 33 41-3 63-29 60-74-43 2-92-5-92 41" id="cl"/><path fill="#635dff" d="M114-163C36-179 61-72 57 0H25l-1-190h30c1 12-1 29 2 39 6-27 23-49 58-41v29" id="cm"/><path fill="#635dff" d="M115-194c55 1 70 41 70 98S169 2 115 4C84 4 66-9 55-30l1 105H24l-1-265h31l2 30c10-21 28-34 59-34zm-8 174c40 0 45-34 45-75s-6-73-45-74c-42 0-51 32-51 76 0 43 10 73 51 73" id="cn"/><path fill="#635dff" d="M100-194c62-1 85 37 85 99 1 63-27 99-86 99S16-35 15-95c0-66 28-99 85-99zM99-20c44 1 53-31 53-75 0-43-8-75-51-75s-53 32-53 75 10 74 51 75" id="co"/><path fill="#635dff" d="M85-194c31 0 48 13 60 33l-1-100h32l1 261h-30c-2-10 0-23-3-31C134-8 116 4 85 4 32 4 16-35 15-94c0-66 23-100 70-100zm9 24c-40 0-46 34-46 75 0 40 6 74 45 74 42 0 51-32 51-76 0-42-9-74-50-73" id="cp"/><g id="Z"><use transform="matrix(0.03703703703703702,0,0,0.03703703703703702,0,0)" xlink:href="#ch"/><use transform="matrix(0.03703703703703702,0,0,0.03703703703703702,7.407407407407404,0)" xlink:href="#ci"/><use transform="matrix(0.03703703703703702,0,0,0.03703703703703702,14.814814814814808,0)" xlink:href="#cj"/><use transform="matrix(0.03703703703703702,0,0,0.03703703703703702,21.481481481481474,0)" xlink:href="#ck"/><use transform="matrix(0.03703703703703702,0,0,0.03703703703703702,28.148148148148135,0)" xlink:href="#cl"/><use transform="matrix(0.03703703703703702,0,0,0.03703703703703702,35.555555555555536,0)" xlink:href="#cm"/><use transform="matrix(0.03703703703703702,0,0,0.03703703703703702,39.96296296296294,0)" xlink:href="#bS"/><use transform="matrix(0.03703703703703702,0,0,0.03703703703703702,47.37037037037034,0)" xlink:href="#cn"/><use transform="matrix(0.03703703703703702,0,0,0.03703703703703702,54.77777777777776,0)" xlink:href="#cm"/><use transform="matrix(0.03703703703703702,0,0,0.03703703703703702,59.18518518518515,0)" xlink:href="#co"/><use transform="matrix(0.03703703703703702,0,0,0.03703703703703702,66.59259259259255,0)" xlink:href="#cp"/><use transform="matrix(0.03703703703703702,0,0,0.03703703703703702,73.99999999999996,0)" xlink:href="#ci"/><use transform="matrix(0.03703703703703702,0,0,0.03703703703703702,81.40740740740736,0)" xlink:href="#bV"/><use transform="matrix(0.03703703703703702,0,0,0.03703703703703702,85.11111111111106,0)" xlink:href="#co"/><use transform="matrix(0.03703703703703702,0,0,0.03703703703703702,92.51851851851846,0)" xlink:href="#bW"/><use transform="matrix(0.03703703703703702,0,0,0.03703703703703702,96.92592592592587,0)" xlink:href="#bo"/><use transform="matrix(0.03703703703703702,0,0,0.03703703703703702,99.85185185185179,0)" xlink:href="#aR"/><use transform="matrix(0.03703703703703702,0,0,0.03703703703703702,107.2592592592592,0)" xlink:href="#bX"/></g><g id="aa"><use transform="matrix(0.03703703703703702,0,0,0.03703703703703702,0,0)" xlink:href="#bo"/><use transform="matrix(0.03703703703703702,0,0,0.03703703703703702,2.9259259259259247,0)" xlink:href="#bq"/><use transform="matrix(0.03703703703703702,0,0,0.03703703703703702,10.333333333333329,0)" xlink:href="#aT"/><use transform="matrix(0.03703703703703702,0,0,0.03703703703703702,14.037037037037031,0)" xlink:href="#ca"/><use transform="matrix(0.03703703703703702,0,0,0.03703703703703702,18.444444444444436,0)" xlink:href="#bX"/></g><g id="ab"><use transform="matrix(0.03703703703703702,0,0,0.03703703703703702,0,0)" xlink:href="#aY"/><use transform="matrix(0.03703703703703702,0,0,0.03703703703703702,8.888888888888886,0)" xlink:href="#aS"/><use transform="matrix(0.03703703703703702,0,0,0.03703703703703702,16.29629629629629,0)" xlink:href="#bZ"/><use transform="matrix(0.03703703703703702,0,0,0.03703703703703702,22.962962962962955,0)" xlink:href="#bm"/><use transform="matrix(0.03703703703703702,0,0,0.03703703703703702,29.629629629629623,0)" xlink:href="#bt"/></g><path fill="#333" d="M100-194c63 0 86 42 84 106H49c0 40 14 67 53 68 26 1 43-12 49-29l28 8c-11 28-37 45-77 45C44 4 14-33 15-96c1-61 26-98 85-98zm52 81c6-60-76-77-97-28-3 7-6 17-6 28h103zm-74-98c8-23 27-35 38-54h36v5l-58 49H78" id="cq"/><g id="ac"><use transform="matrix(0.03703703703703702,0,0,0.03703703703703702,0,0)" xlink:href="#bt"/><use transform="matrix(0.03703703703703702,0,0,0.03703703703703702,7.407407407407404,0)" xlink:href="#aT"/><use transform="matrix(0.03703703703703702,0,0,0.03703703703703702,11.111111111111107,0)" xlink:href="#aP"/><use transform="matrix(0.03703703703703702,0,0,0.03703703703703702,15.518518518518512,0)" xlink:href="#bt"/><use transform="matrix(0.03703703703703702,0,0,0.03703703703703702,22.925925925925917,0)" xlink:href="#bN"/><use transform="matrix(0.03703703703703702,0,0,0.03703703703703702,29.59259259259258,0)" xlink:href="#cq"/><use transform="matrix(0.03703703703703702,0,0,0.03703703703703702,36.999999999999986,0)" xlink:href="#bZ"/></g><g id="ad"><use transform="matrix(0.03703703703703702,0,0,0.03703703703703702,0,0)" xlink:href="#bZ"/><use transform="matrix(0.03703703703703702,0,0,0.03703703703703702,6.666666666666663,0)" xlink:href="#br"/><use transform="matrix(0.03703703703703702,0,0,0.03703703703703702,14.074074074074067,0)" xlink:href="#aS"/></g><path fill="#333" d="M109-170H84l-4-78h32zm-65 0H19l-4-78h33" id="cr"/><g id="ae"><use transform="matrix(0.03703703703703702,0,0,0.03703703703703702,0,0)" xlink:href="#cr"/><use transform="matrix(0.03703703703703702,0,0,0.03703703703703702,4.7037037037037015,0)" xlink:href="#cc"/><use transform="matrix(0.03703703703703702,0,0,0.03703703703703702,14.29629629629629,0)" xlink:href="#bn"/><use transform="matrix(0.03703703703703702,0,0,0.03703703703703702,21.703703703703695,0)" xlink:href="#aR"/><use transform="matrix(0.03703703703703702,0,0,0.03703703703703702,29.1111111111111,0)" xlink:href="#bo"/><use transform="matrix(0.03703703703703702,0,0,0.03703703703703702,32.037037037037024,0)" xlink:href="#bp"/><use transform="matrix(0.03703703703703702,0,0,0.03703703703703702,39.44444444444443,0)" xlink:href="#aQ"/><use transform="matrix(0.03703703703703702,0,0,0.03703703703703702,46.85185185185183,0)" xlink:href="#cr"/></g><use transform="matrix(0.03703703703703702,0,0,0.03703703703703702,0,0)" xlink:href="#bc" id="af"/><path fill="#333" d="M24-248c93 1 206-16 204 79-1 75-69 88-152 82V0H24v-248zm52 121c47 0 100 7 100-41 0-47-54-39-100-39v80" id="cs"/><path fill="#333" d="M132-34C116-15 102 5 68 4 31 3 10-16 10-54c-1-60 55-63 116-61 1-26-3-47-28-47-18 1-26 9-28 27l-52-2c7-38 36-58 82-57s74 22 75 68l1 82c-1 14 12 18 25 15v27c-30 8-71 5-69-32zm-48 3c29 0 43-24 42-57-32 0-66-3-65 30 0 17 8 27 23 27zm81-182v5h-28c-13-11-23-24-37-34l-37 34H35c9-26 32-39 45-61h41" id="ct"/><path fill="#333" d="M137-138c1-29-70-34-71-4 15 46 118 7 119 86 1 83-164 76-172 9l43-7c4 19 20 25 44 25 33 8 57-30 24-41C81-84 22-81 20-136c-2-80 154-74 161-7" id="cu"/><g id="ag"><use transform="matrix(0.03703703703703702,0,0,0.03703703703703702,0,0)" xlink:href="#cs"/><use transform="matrix(0.03703703703703702,0,0,0.03703703703703702,8.888888888888886,0)" xlink:href="#bD"/><use transform="matrix(0.03703703703703702,0,0,0.03703703703703702,16.29629629629629,0)" xlink:href="#bI"/><use transform="matrix(0.03703703703703702,0,0,0.03703703703703702,21.481481481481474,0)" xlink:href="#ct"/><use transform="matrix(0.03703703703703702,0,0,0.03703703703703702,28.888888888888882,0)" xlink:href="#bw"/><use transform="matrix(0.03703703703703702,0,0,0.03703703703703702,40.740740740740726,0)" xlink:href="#bx"/><use transform="matrix(0.03703703703703702,0,0,0.03703703703703702,48.148148148148124,0)" xlink:href="#bE"/><use transform="matrix(0.03703703703703702,0,0,0.03703703703703702,52.555555555555536,0)" xlink:href="#bI"/><use transform="matrix(0.03703703703703702,0,0,0.03703703703703702,57.74074074074072,0)" xlink:href="#be"/><use transform="matrix(0.03703703703703702,0,0,0.03703703703703702,65.85185185185182,0)" xlink:href="#cu"/><use transform="matrix(0.03703703703703702,0,0,0.03703703703703702,73.25925925925922,0)" xlink:href="#bX"/></g><path fill="#333" d="M64-156c23 0 44 21 43 44-1 27-18 44-43 44-23 0-44-17-44-44 0-24 21-44 44-44zm0 74c16 0 30-14 30-30 0-15-15-30-30-30s-30 15-30 30c0 16 14 30 30 30" id="cv"/><use transform="matrix(0.03703703703703702,0,0,0.03703703703703702,0,0)" xlink:href="#cv" id="ah"/><g id="ai"><use transform="matrix(0.03703703703703702,0,0,0.03703703703703702,0,0)" xlink:href="#bm"/><use transform="matrix(0.03703703703703702,0,0,0.03703703703703702,6.666666666666663,0)" xlink:href="#aQ"/><use transform="matrix(0.03703703703703702,0,0,0.03703703703703702,14.074074074074067,0)" xlink:href="#aR"/><use transform="matrix(0.03703703703703702,0,0,0.03703703703703702,21.481481481481474,0)" xlink:href="#bo"/><use transform="matrix(0.03703703703703702,0,0,0.03703703703703702,24.407407407407394,0)" xlink:href="#bp"/><use transform="matrix(0.03703703703703702,0,0,0.03703703703703702,31.814814814814795,0)" xlink:href="#aQ"/><use transform="matrix(0.03703703703703702,0,0,0.03703703703703702,39.2222222222222,0)" xlink:href="#bX"/></g><g id="aj"><use transform="matrix(0.03703703703703702,0,0,0.03703703703703702,0,0)" xlink:href="#bo"/><use transform="matrix(0.03703703703703702,0,0,0.03703703703703702,2.9259259259259247,0)" xlink:href="#bq"/><use transform="matrix(0.03703703703703702,0,0,0.03703703703703702,10.333333333333329,0)" xlink:href="#aT"/></g><path fill="#333" d="M16-82v-28h88v28H16" id="cw"/><use transform="matrix(0.03703703703703702,0,0,0.03703703703703702,0,0)" xlink:href="#cw" id="ak"/><g id="al"><use transform="matrix(0.03703703703703702,0,0,0.03703703703703702,0,0)" xlink:href="#bo"/><use transform="matrix(0.03703703703703702,0,0,0.03703703703703702,2.9259259259259247,0)" xlink:href="#bq"/><use transform="matrix(0.03703703703703702,0,0,0.03703703703703702,10.333333333333329,0)" xlink:href="#aR"/><use transform="matrix(0.03703703703703702,0,0,0.03703703703703702,17.740740740740733,0)" xlink:href="#br"/><use transform="matrix(0.03703703703703702,0,0,0.03703703703703702,25.148148148148138,0)" xlink:href="#bq"/><use transform="matrix(0.03703703703703702,0,0,0.03703703703703702,32.55555555555554,0)" xlink:href="#aT"/><use transform="matrix(0.03703703703703702,0,0,0.03703703703703702,36.259259259259245,0)" xlink:href="#bo"/><use transform="matrix(0.03703703703703702,0,0,0.03703703703703702,39.18518518518517,0)" xlink:href="#bs"/><use transform="matrix(0.03703703703703702,0,0,0.03703703703703702,42.88888888888887,0)" xlink:href="#bo"/><use transform="matrix(0.03703703703703702,0,0,0.03703703703703702,45.814814814814795,0)" xlink:href="#bm"/><use transform="matrix(0.03703703703703702,0,0,0.03703703703703702,52.48148148148146,0)" xlink:href="#bt"/><use transform="matrix(0.03703703703703702,0,0,0.03703703703703702,59.888888888888864,0)" xlink:href="#aR"/><use transform="matrix(0.03703703703703702,0,0,0.03703703703703702,67.29629629629626,0)" xlink:href="#aQ"/><use transform="matrix(0.03703703703703702,0,0,0.03703703703703702,74.70370370370367,0)" xlink:href="#aP"/></g><g id="am"><use transform="matrix(0.03703703703703702,0,0,0.03703703703703702,0,0)" xlink:href="#bW"/><use transform="matrix(0.03703703703703702,0,0,0.03703703703703702,4.407407407407406,0)" xlink:href="#aT"/><use transform="matrix(0.03703703703703702,0,0,0.03703703703703702,8.111111111111107,0)" xlink:href="#aQ"/><use transform="matrix(0.03703703703703702,0,0,0.03703703703703702,15.518518518518512,0)" xlink:href="#aR"/><use transform="matrix(0.03703703703703702,0,0,0.03703703703703702,22.925925925925917,0)" xlink:href="#aQ"/></g><g id="an"><use transform="matrix(0.03703703703703702,0,0,0.03703703703703702,0,0)" xlink:href="#bu"/><use transform="matrix(0.03703703703703702,0,0,0.03703703703703702,7.407407407407404,0)" xlink:href="#aP"/><use transform="matrix(0.03703703703703702,0,0,0.03703703703703702,11.81481481481481,0)" xlink:href="#aQ"/><use transform="matrix(0.03703703703703702,0,0,0.03703703703703702,19.222222222222214,0)" xlink:href="#aR"/><use transform="matrix(0.03703703703703702,0,0,0.03703703703703702,26.62962962962962,0)" xlink:href="#aS"/><use transform="matrix(0.03703703703703702,0,0,0.03703703703703702,34.037037037037024,0)" xlink:href="#aT"/><use transform="matrix(0.03703703703703702,0,0,0.03703703703703702,37.740740740740726,0)" xlink:href="#aQ"/></g><g id="ao"><use transform="matrix(0.03703703703703702,0,0,0.03703703703703702,0,0)" xlink:href="#bu"/><use transform="matrix(0.03703703703703702,0,0,0.03703703703703702,7.407407407407404,0)" xlink:href="#aQ"/><use transform="matrix(0.03703703703703702,0,0,0.03703703703703702,14.814814814814808,0)" xlink:href="#bZ"/><use transform="matrix(0.03703703703703702,0,0,0.03703703703703702,21.481481481481474,0)" xlink:href="#bZ"/><use transform="matrix(0.03703703703703702,0,0,0.03703703703703702,28.148148148148135,0)" xlink:href="#aS"/><use transform="matrix(0.03703703703703702,0,0,0.03703703703703702,35.555555555555536,0)" xlink:href="#bo"/></g><g id="ap"><use transform="matrix(0.03703703703703702,0,0,0.03703703703703702,0,0)" xlink:href="#bo"/><use transform="matrix(0.03703703703703702,0,0,0.03703703703703702,2.9259259259259247,0)" xlink:href="#bq"/><use transform="matrix(0.03703703703703702,0,0,0.03703703703703702,10.333333333333329,0)" xlink:href="#aR"/><use transform="matrix(0.03703703703703702,0,0,0.03703703703703702,17.740740740740733,0)" xlink:href="#br"/><use transform="matrix(0.03703703703703702,0,0,0.03703703703703702,25.148148148148138,0)" xlink:href="#bq"/><use transform="matrix(0.03703703703703702,0,0,0.03703703703703702,32.55555555555554,0)" xlink:href="#aT"/><use transform="matrix(0.03703703703703702,0,0,0.03703703703703702,36.259259259259245,0)" xlink:href="#bo"/><use transform="matrix(0.03703703703703702,0,0,0.03703703703703702,39.18518518518517,0)" xlink:href="#bs"/><use transform="matrix(0.03703703703703702,0,0,0.03703703703703702,42.88888888888887,0)" xlink:href="#bo"/><use transform="matrix(0.03703703703703702,0,0,0.03703703703703702,45.814814814814795,0)" xlink:href="#bm"/><use transform="matrix(0.03703703703703702,0,0,0.03703703703703702,52.48148148148146,0)" xlink:href="#bt"/><use transform="matrix(0.03703703703703702,0,0,0.03703703703703702,59.888888888888864,0)" xlink:href="#aR"/><use transform="matrix(0.03703703703703702,0,0,0.03703703703703702,67.29629629629626,0)" xlink:href="#aQ"/><use transform="matrix(0.03703703703703702,0,0,0.03703703703703702,74.70370370370367,0)" xlink:href="#aP"/><use transform="matrix(0.03703703703703702,0,0,0.03703703703703702,79.11111111111107,0)" xlink:href="#ca"/></g><path fill="#333" d="M240-174c0 40-23 61-54 70L253 0h-59l-57-94H76V0H24v-248c93 4 217-23 216 74zM76-134c48-2 112 12 112-38 0-48-66-32-112-35v73" id="cx"/><g id="aq"><use transform="matrix(0.03703703703703702,0,0,0.03703703703703702,0,0)" xlink:href="#cx"/><use transform="matrix(0.03703703703703702,0,0,0.03703703703703702,9.592592592592588,0)" xlink:href="#bx"/><use transform="matrix(0.03703703703703702,0,0,0.03703703703703702,16.999999999999993,0)" xlink:href="#bE"/><use transform="matrix(0.03703703703703702,0,0,0.03703703703703702,21.407407407407398,0)" xlink:href="#be"/><use transform="matrix(0.03703703703703702,0,0,0.03703703703703702,29.518518518518505,0)" xlink:href="#bI"/><use transform="matrix(0.03703703703703702,0,0,0.03703703703703702,34.70370370370369,0)" xlink:href="#bv"/><use transform="matrix(0.03703703703703702,0,0,0.03703703703703702,42.814814814814795,0)" xlink:href="#be"/><use transform="matrix(0.03703703703703702,0,0,0.03703703703703702,50.9259259259259,0)" xlink:href="#bX"/></g><g id="ar"><use transform="matrix(0.03703703703703702,0,0,0.03703703703703702,0,0)" xlink:href="#bm"/><use transform="matrix(0.03703703703703702,0,0,0.03703703703703702,6.666666666666663,0)" xlink:href="#aQ"/><use transform="matrix(0.03703703703703702,0,0,0.03703703703703702,14.074074074074067,0)" xlink:href="#bA"/></g><use transform="matrix(0.03703703703703702,0,0,0.03703703703703702,0,0)" xlink:href="#aQ" id="as"/><g id="at"><use transform="matrix(0.03703703703703702,0,0,0.03703703703703702,0,0)" xlink:href="#aR"/><use transform="matrix(0.03703703703703702,0,0,0.03703703703703702,7.407407407407404,0)" xlink:href="#br"/><use transform="matrix(0.03703703703703702,0,0,0.03703703703703702,14.814814814814808,0)" xlink:href="#bs"/><use transform="matrix(0.03703703703703702,0,0,0.03703703703703702,18.51851851851851,0)" xlink:href="#bo"/><use transform="matrix(0.03703703703703702,0,0,0.03703703703703702,21.444444444444432,0)" xlink:href="#bq"/><use transform="matrix(0.03703703703703702,0,0,0.03703703703703702,28.851851851851837,0)" xlink:href="#bo"/><use transform="matrix(0.03703703703703702,0,0,0.03703703703703702,31.77777777777776,0)" xlink:href="#aR"/><use transform="matrix(0.03703703703703702,0,0,0.03703703703703702,39.18518518518516,0)" xlink:href="#aQ"/><use transform="matrix(0.03703703703703702,0,0,0.03703703703703702,46.59259259259257,0)" xlink:href="#bY"/></g><g id="au"><use transform="matrix(0.03703703703703702,0,0,0.03703703703703702,0,0)" xlink:href="#aQ"/><use transform="matrix(0.03703703703703702,0,0,0.03703703703703702,7.407407407407404,0)" xlink:href="#aS"/></g><g id="av"><use transform="matrix(0.03703703703703702,0,0,0.03703703703703702,0,0)" xlink:href="#aP"/><use transform="matrix(0.03703703703703702,0,0,0.03703703703703702,4.407407407407406,0)" xlink:href="#br"/><use transform="matrix(0.03703703703703702,0,0,0.03703703703703702,11.81481481481481,0)" xlink:href="#aT"/><use transform="matrix(0.03703703703703702,0,0,0.03703703703703702,15.518518518518512,0)" xlink:href="#aQ"/><use transform="matrix(0.03703703703703702,0,0,0.03703703703703702,22.925925925925917,0)" xlink:href="#aP"/><use transform="matrix(0.03703703703703702,0,0,0.03703703703703702,27.33333333333332,0)" xlink:href="#bq"/><use transform="matrix(0.03703703703703702,0,0,0.03703703703703702,34.740740740740726,0)" xlink:href="#bt"/><use transform="matrix(0.03703703703703702,0,0,0.03703703703703702,42.14814814814813,0)" xlink:href="#aP"/><use transform="matrix(0.03703703703703702,0,0,0.03703703703703702,46.555555555555536,0)" xlink:href="#cf"/></g><g id="aw"><use transform="matrix(0.03703703703703702,0,0,0.03703703703703702,0,0)" xlink:href="#bq"/><use transform="matrix(0.03703703703703702,0,0,0.03703703703703702,7.407407407407404,0)" xlink:href="#aS"/><use transform="matrix(0.03703703703703702,0,0,0.03703703703703702,14.814814814814808,0)" xlink:href="#bO"/><use transform="matrix(0.03703703703703702,0,0,0.03703703703703702,17.740740740740733,0)" xlink:href="#bO"/></g><g id="ax"><use transform="matrix(0.03703703703703702,0,0,0.03703703703703702,0,0)" xlink:href="#bm"/><use transform="matrix(0.03703703703703702,0,0,0.03703703703703702,6.666666666666663,0)" xlink:href="#bt"/><use transform="matrix(0.03703703703703702,0,0,0.03703703703703702,14.074074074074067,0)" xlink:href="#bZ"/><use transform="matrix(0.03703703703703702,0,0,0.03703703703703702,20.740740740740733,0)" xlink:href="#aQ"/></g><g id="ay"><use transform="matrix(0.03703703703703702,0,0,0.03703703703703702,0,0)" xlink:href="#bq"/><use transform="matrix(0.03703703703703702,0,0,0.03703703703703702,7.407407407407404,0)" xlink:href="#cd"/><use transform="matrix(0.03703703703703702,0,0,0.03703703703703702,14.814814814814808,0)" xlink:href="#aQ"/></g><path fill="#333" d="M141 0L90-78 38 0H4l68-98-65-92h35l48 74 47-74h35l-64 92 68 98h-35" id="cy"/><g id="az"><use transform="matrix(0.03703703703703702,0,0,0.03703703703703702,0,0)" xlink:href="#br"/><use transform="matrix(0.03703703703703702,0,0,0.03703703703703702,7.407407407407404,0)" xlink:href="#cy"/><use transform="matrix(0.03703703703703702,0,0,0.03703703703703702,14.074074074074067,0)" xlink:href="#bo"/><use transform="matrix(0.03703703703703702,0,0,0.03703703703703702,16.999999999999993,0)" xlink:href="#bZ"/><use transform="matrix(0.03703703703703702,0,0,0.03703703703703702,23.666666666666657,0)" xlink:href="#aT"/><use transform="matrix(0.03703703703703702,0,0,0.03703703703703702,27.37037037037036,0)" xlink:href="#bt"/></g><path fill="#635dff" d="M145-31C134-9 116 4 85 4 32 4 16-35 15-94c0-59 17-99 70-100 32-1 48 14 60 33 0-11-1-24 2-32h30l-1 268h-32zM93-21c41 0 51-33 51-76s-8-73-50-73c-40 0-46 35-46 75s5 74 45 74" id="cz"/><path fill="#635dff" d="M100-194c63 0 86 42 84 106H49c0 40 14 67 53 68 26 1 43-12 49-29l28 8c-11 28-37 45-77 45C44 4 14-33 15-96c1-61 26-98 85-98zm52 81c6-60-76-77-97-28-3 7-6 17-6 28h103" id="cA"/><g id="aA"><use transform="matrix(0.03703703703703702,0,0,0.03703703703703702,0,0)" xlink:href="#cz"/><use transform="matrix(0.03703703703703702,0,0,0.03703703703703702,7.407407407407404,0)" xlink:href="#ci"/><use transform="matrix(0.03703703703703702,0,0,0.03703703703703702,14.814814814814808,0)" xlink:href="#cl"/><use transform="matrix(0.03703703703703702,0,0,0.03703703703703702,22.222222222222214,0)" xlink:href="#bU"/><use transform="matrix(0.03703703703703702,0,0,0.03703703703703702,29.629629629629616,0)" xlink:href="#bV"/><use transform="matrix(0.03703703703703702,0,0,0.03703703703703702,33.333333333333314,0)" xlink:href="#bT"/><use transform="matrix(0.03703703703703702,0,0,0.03703703703703702,36.25925925925924,0)" xlink:href="#cp"/><use transform="matrix(0.03703703703703702,0,0,0.03703703703703702,43.66666666666664,0)" xlink:href="#cl"/><use transform="matrix(0.03703703703703702,0,0,0.03703703703703702,51.07407407407404,0)" xlink:href="#cp"/><use transform="matrix(0.03703703703703702,0,0,0.03703703703703702,58.48148148148146,0)" xlink:href="#cA"/><use transform="matrix(0.03703703703703702,0,0,0.03703703703703702,65.88888888888886,0)" xlink:href="#bS"/><use transform="matrix(0.03703703703703702,0,0,0.03703703703703702,73.29629629629626,0)" xlink:href="#cn"/><use transform="matrix(0.03703703703703702,0,0,0.03703703703703702,80.70370370370367,0)" xlink:href="#cm"/><use transform="matrix(0.03703703703703702,0,0,0.03703703703703702,85.11111111111107,0)" xlink:href="#co"/><use transform="matrix(0.03703703703703702,0,0,0.03703703703703702,92.51851851851848,0)" xlink:href="#cp"/><use transform="matrix(0.03703703703703702,0,0,0.03703703703703702,99.92592592592588,0)" xlink:href="#ci"/><use transform="matrix(0.03703703703703702,0,0,0.03703703703703702,107.33333333333329,0)" xlink:href="#bV"/><use transform="matrix(0.03703703703703702,0,0,0.03703703703703702,111.037037037037,0)" xlink:href="#co"/><use transform="matrix(0.03703703703703702,0,0,0.03703703703703702,118.4444444444444,0)" xlink:href="#bW"/><use transform="matrix(0.03703703703703702,0,0,0.03703703703703702,122.8518518518518,0)" xlink:href="#bo"/><use transform="matrix(0.03703703703703702,0,0,0.03703703703703702,125.7777777777777,0)" xlink:href="#aR"/><use transform="matrix(0.03703703703703702,0,0,0.03703703703703702,133.1851851851851,0)" xlink:href="#bX"/></g><g id="aB"><use transform="matrix(0.03703703703703702,0,0,0.03703703703703702,0,0)" xlink:href="#bo"/><use transform="matrix(0.03703703703703702,0,0,0.03703703703703702,2.9259259259259247,0)" xlink:href="#bq"/><use transform="matrix(0.03703703703703702,0,0,0.03703703703703702,10.333333333333329,0)" xlink:href="#aT"/><use transform="matrix(0.03703703703703702,0,0,0.03703703703703702,14.037037037037031,0)" xlink:href="#ca"/></g><path fill="#333" d="M240 0l2-218c-23 76-54 145-80 218h-23L58-218 59 0H30v-248h44l77 211c21-75 51-140 76-211h43V0h-30" id="cB"/><g id="aC"><use transform="matrix(0.03703703703703702,0,0,0.03703703703703702,0,0)" xlink:href="#cB"/><use transform="matrix(0.03703703703703702,0,0,0.03703703703703702,11.074074074074069,0)" xlink:href="#cq"/><use transform="matrix(0.03703703703703702,0,0,0.03703703703703702,18.481481481481474,0)" xlink:href="#aT"/><use transform="matrix(0.03703703703703702,0,0,0.03703703703703702,22.185185185185176,0)" xlink:href="#aQ"/><use transform="matrix(0.03703703703703702,0,0,0.03703703703703702,29.59259259259258,0)" xlink:href="#aR"/><use transform="matrix(0.03703703703703702,0,0,0.03703703703703702,36.999999999999986,0)" xlink:href="#aQ"/></g><g id="aD"><use transform="matrix(0.03703703703703702,0,0,0.03703703703703702,0,0)" xlink:href="#aP"/><use transform="matrix(0.03703703703703702,0,0,0.03703703703703702,4.407407407407406,0)" xlink:href="#br"/><use transform="matrix(0.03703703703703702,0,0,0.03703703703703702,11.81481481481481,0)" xlink:href="#bZ"/><use transform="matrix(0.03703703703703702,0,0,0.03703703703703702,18.481481481481474,0)" xlink:href="#bu"/><use transform="matrix(0.03703703703703702,0,0,0.03703703703703702,25.88888888888888,0)" xlink:href="#aQ"/><use transform="matrix(0.03703703703703702,0,0,0.03703703703703702,33.29629629629628,0)" xlink:href="#bq"/><use transform="matrix(0.03703703703703702,0,0,0.03703703703703702,40.70370370370369,0)" xlink:href="#bZ"/><use transform="matrix(0.03703703703703702,0,0,0.03703703703703702,47.37037037037035,0)" xlink:href="#cf"/><use transform="matrix(0.03703703703703702,0,0,0.03703703703703702,54.77777777777776,0)" xlink:href="#bN"/><use transform="matrix(0.03703703703703702,0,0,0.03703703703703702,61.44444444444442,0)" xlink:href="#br"/><use transform="matrix(0.03703703703703702,0,0,0.03703703703703702,68.85185185185182,0)" xlink:href="#bO"/></g><g id="aE"><use transform="matrix(0.03703703703703702,0,0,0.03703703703703702,0,0)" xlink:href="#bu"/><use transform="matrix(0.03703703703703702,0,0,0.03703703703703702,7.407407407407404,0)" xlink:href="#aQ"/><use transform="matrix(0.03703703703703702,0,0,0.03703703703703702,14.814814814814808,0)" xlink:href="#aP"/></g><g id="aF"><use transform="matrix(0.03703703703703702,0,0,0.03703703703703702,0,0)" xlink:href="#aP"/><use transform="matrix(0.03703703703703702,0,0,0.03703703703703702,4.407407407407406,0)" xlink:href="#br"/><use transform="matrix(0.03703703703703702,0,0,0.03703703703703702,11.81481481481481,0)" xlink:href="#aT"/><use transform="matrix(0.03703703703703702,0,0,0.03703703703703702,15.518518518518512,0)" xlink:href="#aQ"/><use transform="matrix(0.03703703703703702,0,0,0.03703703703703702,22.925925925925917,0)" xlink:href="#aP"/><use transform="matrix(0.03703703703703702,0,0,0.03703703703703702,27.33333333333332,0)" xlink:href="#bq"/><use transform="matrix(0.03703703703703702,0,0,0.03703703703703702,34.740740740740726,0)" xlink:href="#bt"/><use transform="matrix(0.03703703703703702,0,0,0.03703703703703702,42.14814814814813,0)" xlink:href="#aP"/></g><use transform="matrix(0.03703703703703702,0,0,0.03703703703703702,0,0)" xlink:href="#bt" id="aG"/><g id="aH"><use transform="matrix(0.03703703703703702,0,0,0.03703703703703702,0,0)" xlink:href="#aR"/><use transform="matrix(0.03703703703703702,0,0,0.03703703703703702,7.407407407407404,0)" xlink:href="#aQ"/></g><g id="aI"><use transform="matrix(0.03703703703703702,0,0,0.03703703703703702,0,0)" xlink:href="#cy"/><use transform="matrix(0.03703703703703702,0,0,0.03703703703703702,6.666666666666663,0)" xlink:href="#ce"/></g><g id="aJ"><use transform="matrix(0.03703703703703702,0,0,0.03703703703703702,0,0)" xlink:href="#cs"/><use transform="matrix(0.03703703703703702,0,0,0.03703703703703702,8.888888888888886,0)" xlink:href="#bD"/><use transform="matrix(0.03703703703703702,0,0,0.03703703703703702,16.29629629629629,0)" xlink:href="#bI"/><use transform="matrix(0.03703703703703702,0,0,0.03703703703703702,21.481481481481474,0)" xlink:href="#ct"/><use transform="matrix(0.03703703703703702,0,0,0.03703703703703702,28.888888888888882,0)" xlink:href="#bw"/><use transform="matrix(0.03703703703703702,0,0,0.03703703703703702,40.740740740740726,0)" xlink:href="#bx"/><use transform="matrix(0.03703703703703702,0,0,0.03703703703703702,48.148148148148124,0)" xlink:href="#bE"/><use transform="matrix(0.03703703703703702,0,0,0.03703703703703702,52.555555555555536,0)" xlink:href="#bI"/><use transform="matrix(0.03703703703703702,0,0,0.03703703703703702,57.74074074074072,0)" xlink:href="#be"/><use transform="matrix(0.03703703703703702,0,0,0.03703703703703702,65.85185185185182,0)" xlink:href="#cu"/><use transform="matrix(0.03703703703703702,0,0,0.03703703703703702,73.25925925925922,0)" xlink:href="#bX"/></g><g id="aK"><use transform="matrix(0.03703703703703702,0,0,0.03703703703703702,0,0)" xlink:href="#bF"/><use transform="matrix(0.03703703703703702,0,0,0.03703703703703702,7.407407407407404,0)" xlink:href="#aS"/><use transform="matrix(0.03703703703703702,0,0,0.03703703703703702,14.814814814814808,0)" xlink:href="#bt"/><use transform="matrix(0.03703703703703702,0,0,0.03703703703703702,22.222222222222214,0)" xlink:href="#bq"/><use transform="matrix(0.03703703703703702,0,0,0.03703703703703702,29.629629629629616,0)" xlink:href="#aT"/><use transform="matrix(0.03703703703703702,0,0,0.03703703703703702,33.333333333333314,0)" xlink:href="#bo"/><use transform="matrix(0.03703703703703702,0,0,0.03703703703703702,36.25925925925924,0)" xlink:href="#aR"/><use transform="matrix(0.03703703703703702,0,0,0.03703703703703702,43.66666666666664,0)" xlink:href="#bt"/><use transform="matrix(0.03703703703703702,0,0,0.03703703703703702,51.07407407407404,0)" xlink:href="#aR"/><use transform="matrix(0.03703703703703702,0,0,0.03703703703703702,58.48148148148146,0)" xlink:href="#br"/><use transform="matrix(0.03703703703703702,0,0,0.03703703703703702,65.88888888888886,0)" xlink:href="#bX"/></g><g id="aL"><use transform="matrix(0.03703703703703702,0,0,0.03703703703703702,0,0)" xlink:href="#bF"/><use transform="matrix(0.03703703703703702,0,0,0.03703703703703702,7.407407407407404,0)" xlink:href="#aS"/><use transform="matrix(0.03703703703703702,0,0,0.03703703703703702,14.814814814814808,0)" xlink:href="#br"/></g><g id="aM"><use transform="matrix(0.03703703703703702,0,0,0.03703703703703702,0,0)" xlink:href="#bZ"/><use transform="matrix(0.03703703703703702,0,0,0.03703703703703702,6.666666666666663,0)" xlink:href="#br"/><use transform="matrix(0.03703703703703702,0,0,0.03703703703703702,14.074074074074067,0)" xlink:href="#aP"/><use transform="matrix(0.03703703703703702,0,0,0.03703703703703702,18.481481481481474,0)" xlink:href="#cf"/></g><g id="aN"><use transform="matrix(0.03703703703703702,0,0,0.03703703703703702,0,0)" xlink:href="#bu"/><use transform="matrix(0.03703703703703702,0,0,0.03703703703703702,7.407407407407404,0)" xlink:href="#br"/><use transform="matrix(0.03703703703703702,0,0,0.03703703703703702,14.814814814814808,0)" xlink:href="#bZ"/><use transform="matrix(0.03703703703703702,0,0,0.03703703703703702,21.481481481481474,0)" xlink:href="#bF"/><use transform="matrix(0.03703703703703702,0,0,0.03703703703703702,28.888888888888875,0)" xlink:href="#aS"/><use transform="matrix(0.03703703703703702,0,0,0.03703703703703702,36.296296296296276,0)" xlink:href="#bo"/><use transform="matrix(0.03703703703703702,0,0,0.03703703703703702,39.2222222222222,0)" xlink:href="#bZ"/><use transform="matrix(0.03703703703703702,0,0,0.03703703703703702,45.88888888888886,0)" xlink:href="#bt"/><use transform="matrix(0.03703703703703702,0,0,0.03703703703703702,53.296296296296276,0)" xlink:href="#aR"/><use transform="matrix(0.03703703703703702,0,0,0.03703703703703702,60.70370370370368,0)" xlink:href="#aQ"/><use transform="matrix(0.03703703703703702,0,0,0.03703703703703702,68.11111111111107,0)" xlink:href="#ce"/></g></defs></g></svg>